<?xml version="1.0" standalone="no"?>
<!DOCTYPE svg PUBLIC "-//W3C//DTD SVG 20010904//EN"
 "http://www.w3.org/TR/2001/REC-SVG-20010904/DTD/svg10.dtd">
<svg version="1.0" xmlns="http://www.w3.org/2000/svg"
 width="2048.000000pt" height="2048.000000pt" viewBox="0 0 2048.000000 2048.000000"
 preserveAspectRatio="xMidYMid meet">

<g transform="translate(0.000000,2048.000000) scale(0.100000,-0.100000)"
fill="#000000" stroke="none">
<path d="M9845 18424 c-27 -2 -122 -8 -210 -14 -88 -6 -235 -20 -327 -30
-1628 -185 -3149 -849 -4395 -1918 -1168 -1001 -2033 -2318 -2484 -3782 -191
-619 -306 -1254 -349 -1925 -13 -202 -13 -813 0 -1010 49 -754 181 -1437 404
-2090 66 -196 243 -650 289 -742 96 -194 253 -493 278 -530 16 -23 29 -49 29
-57 0 -9 44 -89 97 -179 818 -1373 1994 -2473 3403 -3181 912 -459 1842 -729
2860 -831 535 -53 1232 -45 1780 20 1602 193 3101 853 4335 1910 137 117 461
422 517 487 27 32 56 58 64 58 8 0 14 5 14 11 0 5 47 61 104 124 152 166 301
342 438 517 234 296 512 706 586 863 10 22 48 83 84 135 96 142 302 560 413
840 20 52 52 127 71 165 18 39 59 149 90 245 30 96 69 209 85 250 67 174 189
622 253 935 196 960 225 1974 87 3055 -16 124 -34 236 -40 250 -6 14 -38 122
-72 240 -213 756 -554 1563 -910 2156 -27 45 -49 94 -49 108 0 21 -5 26 -25
26 -20 0 -25 5 -25 24 0 37 -18 76 -34 76 -8 0 -23 19 -35 43 -11 23 -55 89
-97 147 -75 103 -134 209 -134 241 0 9 -13 22 -29 29 -21 8 -40 32 -66 81 -20
38 -43 69 -51 69 -8 0 -14 9 -14 21 0 12 -11 30 -24 40 -14 11 -41 46 -61 79
-19 32 -42 60 -49 62 -7 2 -48 50 -92 107 -83 111 -173 206 -204 216 -10 3
-20 16 -22 28 -2 14 -11 23 -25 25 -13 2 -23 11 -25 25 -2 13 -12 23 -28 27
-16 4 -26 14 -28 27 -2 14 -12 23 -25 25 -14 2 -23 11 -25 25 -2 14 -11 23
-25 25 -14 2 -23 11 -25 25 -2 14 -11 23 -25 25 -14 2 -23 11 -25 26 -2 13
-10 22 -21 22 -11 0 -31 22 -52 57 -27 45 -57 74 -141 138 -59 44 -110 88
-113 98 -4 9 -13 17 -21 17 -8 0 -20 11 -26 25 -7 16 -19 25 -33 25 -13 0 -30
11 -38 24 -9 13 -49 44 -89 68 -50 30 -78 54 -88 76 -9 19 -23 32 -34 32 -11
0 -34 18 -53 40 -19 22 -64 56 -101 77 -37 20 -84 56 -105 80 -36 41 -180 123
-214 123 -8 0 -45 29 -81 64 -79 75 -137 114 -292 191 -63 32 -207 116 -320
188 -236 150 -392 233 -511 272 -46 15 -102 36 -125 46 -22 10 -45 19 -51 19
-6 0 -89 38 -185 84 -317 154 -897 333 -1438 445 -313 64 -675 117 -1022 147
-171 15 -940 28 -1073 18z m1050 -179 c405 -26 563 -43 750 -79 99 -19 225
-42 280 -51 212 -33 1000 -260 1046 -301 8 -8 25 -14 37 -14 26 0 653 -275
836 -367 595 -298 1168 -687 1696 -1149 174 -152 552 -530 704 -704 816 -931
1395 -1997 1721 -3165 322 -1155 378 -2366 169 -3661 l-26 -161 -87 -7 c-203
-15 -324 -85 -397 -228 -13 -27 -31 -48 -39 -48 -8 0 -15 -7 -15 -16 0 -22
-70 -134 -85 -134 -6 0 -17 -21 -23 -48 -18 -67 -61 -138 -156 -255 -107 -133
-152 -201 -172 -259 -8 -27 -21 -48 -28 -48 -7 0 -23 -24 -36 -52 -21 -48 -24
-51 -27 -26 -3 16 8 50 25 85 48 95 116 273 218 569 96 279 162 450 208 542
21 41 31 50 68 61 51 16 145 63 173 88 11 10 37 39 58 65 22 28 51 51 72 58
27 9 35 17 35 35 0 16 16 38 51 67 45 39 128 148 145 191 10 27 -62 24 -76 -3
-6 -11 -44 -42 -85 -70 -40 -27 -82 -63 -92 -80 -9 -16 -23 -30 -30 -30 -21 0
-16 61 12 149 26 81 42 101 84 101 12 0 21 7 21 15 0 21 38 53 71 60 19 4 36
20 54 51 14 24 38 52 52 61 44 29 109 184 87 206 -10 10 -64 -53 -64 -74 0
-14 -7 -19 -30 -19 -23 0 -33 -6 -40 -25 -5 -14 -14 -25 -20 -25 -5 0 -10 -6
-10 -13 0 -8 -11 -19 -25 -25 -54 -25 -55 -24 -55 128 l0 140 -26 0 c-24 0
-25 3 -19 28 17 68 106 182 180 229 32 20 45 35 45 51 0 17 6 22 25 22 23 0
25 4 25 40 0 36 3 40 25 40 18 0 25 5 25 20 0 24 2 24 -54 0 -26 -11 -46 -26
-46 -35 0 -9 -9 -15 -24 -15 -19 0 -33 -14 -65 -65 -41 -64 -42 -65 -86 -65
-25 0 -45 5 -45 10 0 6 9 38 21 72 22 66 22 108 -2 205 -16 64 -1 118 61 231
33 58 45 72 65 72 21 0 28 10 52 75 24 63 32 75 51 75 22 0 23 3 20 63 -2 34
-7 62 -13 62 -18 -1 -105 -125 -105 -151 0 -14 -6 -24 -14 -24 -22 0 -77 -60
-98 -107 -44 -101 -63 -28 -52 203 7 150 6 154 -14 154 -11 0 -27 11 -36 25
-14 22 -24 24 -93 27 l-77 3 -63 75 c-35 41 -63 80 -63 87 0 6 -12 13 -27 15
-18 2 -29 11 -34 28 -60 201 -71 230 -84 230 -8 0 -15 9 -15 20 0 24 -13 26
-30 5 -22 -26 -4 -127 45 -251 41 -105 45 -124 45 -200 0 -81 -1 -84 -23 -84
-13 0 -32 -10 -43 -21 -16 -18 -19 -36 -17 -125 2 -93 0 -104 -16 -104 -20 0
-61 67 -61 99 0 13 6 21 17 21 15 0 15 1 0 18 -10 10 -17 33 -17 50 l0 32 -60
0 -60 0 0 -75 0 -75 51 -56 c28 -31 61 -78 74 -105 12 -27 34 -58 49 -70 15
-11 26 -30 26 -44 0 -12 6 -25 14 -28 8 -3 16 -23 18 -44 3 -21 7 -45 9 -53 2
-8 -6 -19 -18 -25 -22 -9 -23 -15 -23 -122 l0 -113 -37 0 c-41 0 -46 7 -123
148 -33 61 -78 101 -112 102 -16 0 -28 -4 -28 -10 0 -27 43 -115 99 -204 35
-55 72 -119 83 -143 10 -24 25 -43 32 -43 17 0 36 -51 36 -96 0 -29 -3 -34
-25 -34 -18 0 -27 -7 -32 -27 -10 -36 -10 -168 0 -215 6 -30 5 -38 -6 -38 -20
0 -27 -30 -34 -148 -4 -68 -10 -101 -17 -99 -6 2 -13 12 -14 23 -2 10 -25 42
-52 69 -82 86 -189 266 -220 373 -9 30 -19 42 -32 42 -24 0 -24 -1 18 -105 19
-50 41 -115 48 -145 10 -44 17 -56 36 -60 19 -5 26 -15 35 -61 6 -30 28 -85
50 -122 33 -57 43 -67 67 -67 l28 0 0 -176 0 -175 50 -82 c27 -45 61 -113 75
-150 l26 -69 -26 -52 c-14 -28 -38 -107 -54 -176 -39 -171 -261 -720 -424
-1049 -78 -157 -92 -161 -58 -18 25 105 72 224 188 477 89 193 91 197 133 405
45 223 61 409 43 525 -7 48 -11 55 -33 58 -13 2 -44 26 -69 52 -109 114 -219
84 -353 -95 -35 -46 -88 -129 -118 -184 -30 -55 -56 -99 -58 -97 -1 2 28 138
67 302 114 489 128 566 145 769 48 560 48 1059 0 1645 -14 179 -20 214 -74
420 -61 231 -106 429 -135 583 -18 98 -81 267 -253 685 -113 274 -117 282
-144 282 -26 0 -28 3 -28 40 0 35 -3 40 -23 40 -20 0 -30 15 -70 108 -53 122
-128 257 -182 328 -44 57 -79 125 -94 181 -7 24 -21 47 -35 57 -14 8 -53 55
-87 103 -34 49 -70 94 -80 101 -10 6 -23 28 -29 47 -6 19 -15 35 -20 35 -5 0
-47 51 -93 113 -47 61 -104 130 -126 152 -25 23 -41 48 -41 62 0 16 -8 27 -24
33 -13 5 -27 18 -31 29 -4 14 -15 21 -31 21 -17 0 -24 5 -24 20 0 13 -9 22
-25 26 -16 4 -25 13 -25 25 0 11 -9 21 -24 25 -15 3 -26 14 -28 27 -2 13 -11
23 -23 25 -11 2 -26 16 -34 33 -7 16 -30 40 -52 52 -27 15 -39 29 -39 44 0 13
-10 27 -22 34 -13 7 -72 60 -133 118 -201 195 -264 249 -308 264 -33 10 -43
19 -45 38 -2 19 -12 29 -38 38 -19 7 -44 25 -56 41 -12 17 -38 34 -64 41 -24
8 -44 18 -44 24 0 13 -195 151 -345 246 -516 325 -1289 672 -1725 774 -379 89
-708 150 -1083 202 -179 24 -223 26 -667 30 -629 6 -823 -10 -1120 -91 -69
-19 -179 -42 -245 -51 -218 -29 -396 -79 -950 -268 -185 -63 -264 -97 -500
-214 -154 -77 -295 -145 -312 -151 -18 -6 -33 -18 -33 -26 0 -9 -6 -16 -13
-16 -22 0 -173 -77 -236 -119 -32 -22 -70 -54 -84 -70 -14 -17 -46 -38 -74
-47 -59 -20 -124 -62 -260 -165 -58 -44 -125 -90 -149 -102 -24 -11 -44 -25
-44 -31 0 -19 -54 -66 -77 -66 -15 0 -28 -10 -37 -28 -19 -37 -94 -106 -144
-131 -22 -11 -43 -29 -47 -40 -7 -24 -232 -242 -275 -267 -16 -10 -30 -23 -30
-30 0 -6 -21 -24 -48 -41 -32 -20 -76 -66 -139 -149 -50 -65 -122 -148 -160
-184 -65 -62 -133 -166 -133 -204 0 -10 -9 -16 -24 -16 -18 0 -27 -9 -40 -40
-9 -22 -22 -40 -30 -40 -13 0 -36 -32 -79 -110 -10 -19 -34 -51 -52 -70 -18
-19 -38 -51 -44 -70 -6 -19 -45 -80 -87 -135 -75 -100 -124 -182 -124 -209 0
-7 -8 -16 -19 -19 -24 -6 -111 -178 -111 -218 0 -17 -5 -29 -13 -29 -7 0 -26
-30 -41 -67 -16 -38 -89 -187 -161 -333 -135 -270 -182 -379 -208 -485 -8 -33
-39 -146 -70 -250 -30 -105 -80 -291 -112 -415 -31 -123 -61 -232 -66 -242
-13 -24 -23 -82 -59 -327 l-30 -210 0 -694 0 -693 40 -214 c137 -730 296
-1262 534 -1785 40 -88 86 -191 102 -230 16 -38 77 -153 135 -255 59 -102 116
-205 128 -228 16 -32 27 -42 46 -42 20 0 25 -5 25 -25 0 -14 6 -25 13 -25 7 0
29 -33 49 -74 25 -51 46 -79 64 -88 15 -7 42 -37 58 -65 17 -29 41 -60 54 -68
12 -9 22 -21 22 -26 0 -6 44 -63 99 -127 54 -64 117 -144 140 -176 23 -33 58
-69 78 -80 20 -12 61 -50 90 -86 104 -125 156 -182 177 -192 12 -5 29 -27 39
-49 14 -28 48 -62 121 -119 55 -43 109 -93 119 -110 11 -18 26 -30 39 -30 18
0 108 -83 108 -101 0 -4 34 -29 75 -55 44 -27 82 -59 91 -76 10 -20 38 -40 89
-65 40 -20 76 -44 78 -52 4 -17 167 -122 277 -179 36 -18 74 -44 85 -57 62
-71 1040 -552 1230 -605 44 -12 202 -57 351 -101 149 -43 324 -91 390 -105 65
-14 153 -34 194 -44 187 -48 286 -62 605 -86 536 -39 895 -50 1173 -36 320 16
498 41 772 107 80 19 201 46 270 61 137 28 303 81 635 201 121 44 273 95 339
114 73 21 121 40 124 49 8 22 23 30 60 30 25 0 35 5 39 20 5 18 54 40 90 40 6
0 13 5 15 11 2 6 36 23 76 39 112 44 262 130 317 184 50 48 119 86 158 86 24
0 57 27 57 47 0 7 6 13 14 13 8 0 54 29 102 65 49 36 106 71 127 77 20 6 37
17 37 24 0 7 26 31 58 52 31 22 66 49 76 61 11 11 30 21 43 21 13 0 23 6 23
14 0 7 28 33 63 57 245 172 361 270 454 387 20 24 45 43 63 47 16 4 30 13 30
21 0 8 11 20 25 26 14 6 25 17 25 25 0 7 11 19 25 25 14 6 25 17 25 24 0 7 9
16 21 19 11 4 24 18 30 32 5 14 18 27 29 30 11 3 22 15 26 26 8 27 45 77 56
77 16 0 118 108 132 141 8 19 28 42 45 52 l31 18 -39 -60 c-21 -34 -47 -81
-58 -106 -10 -25 -23 -45 -30 -45 -6 0 -16 -15 -22 -32 -18 -51 -115 -218
-127 -218 -15 0 -66 -132 -71 -184 -6 -61 7 -74 49 -48 52 32 133 122 162 180
20 40 32 52 50 52 14 0 27 9 33 23 13 29 69 57 113 57 l33 0 -7 -47 c-20 -138
-19 -181 3 -232 25 -59 20 -97 -14 -113 -13 -6 -62 -57 -109 -114 -48 -57 -91
-104 -96 -104 -6 0 -10 -7 -10 -15 0 -9 -9 -15 -25 -15 -24 0 -25 -2 -25 -64
l0 -64 65 -12 c36 -7 80 -9 98 -6 49 9 162 121 235 232 64 96 99 132 150 153
22 9 32 21 34 39 2 19 10 28 25 30 14 2 23 11 25 25 3 21 10 22 116 29 172 10
352 38 382 59 14 10 51 28 83 39 33 13 57 27 57 36 0 8 10 14 23 14 13 0 38
15 58 36 50 52 119 83 119 53 0 -24 -122 -335 -136 -345 -15 -12 -94 -157
-157 -286 -18 -36 -40 -69 -50 -71 -11 -3 -41 -54 -78 -131 -33 -69 -64 -126
-69 -126 -5 0 -10 -10 -12 -23 -2 -15 -11 -23 -29 -25 -23 -3 -27 -9 -32 -48
-3 -28 -15 -56 -31 -77 -15 -17 -41 -53 -58 -80 -17 -26 -37 -47 -44 -47 -8 0
-14 -6 -14 -14 0 -8 -20 -22 -44 -31 -45 -17 -90 -56 -110 -96 -6 -12 -30 -31
-53 -43 -23 -11 -43 -26 -43 -33 0 -6 -25 -26 -56 -44 -80 -45 -200 -143 -226
-184 -17 -26 -30 -35 -50 -35 -24 0 -28 -4 -28 -28 0 -23 -6 -30 -33 -40 -56
-20 -125 -69 -149 -107 -21 -32 -232 -165 -700 -444 -16 -9 -28 -21 -28 -26 0
-6 -145 -83 -322 -172 -421 -210 -519 -256 -603 -283 -38 -13 -100 -38 -137
-56 -121 -61 -238 -105 -598 -226 -313 -105 -375 -122 -525 -148 -93 -16 -313
-56 -487 -90 -175 -33 -404 -76 -510 -96 l-193 -37 -450 -7 c-247 -5 -475 -11
-505 -15 -38 -4 -160 6 -395 34 -337 39 -519 72 -1215 221 -371 78 -806 206
-1060 311 -69 28 -155 61 -192 73 -37 11 -68 27 -68 33 0 7 -34 22 -75 34 -49
14 -75 27 -75 36 0 8 -9 17 -21 20 -11 3 -56 23 -100 44 -43 21 -95 41 -116
45 -21 4 -43 10 -49 15 -6 5 -62 35 -125 67 -63 32 -215 119 -339 192 -124 74
-251 148 -282 165 -44 23 -58 35 -58 53 0 16 -6 22 -21 22 -12 0 -32 11 -45
25 -16 17 -34 25 -58 25 -30 0 -35 4 -38 27 -2 22 -11 28 -50 40 -27 7 -48 20
-48 27 0 7 -18 21 -40 31 -22 10 -60 36 -84 59 -113 104 -141 126 -159 126
-10 0 -28 11 -38 24 -10 13 -50 47 -87 75 -37 27 -74 61 -82 75 -9 18 -22 26
-40 26 -31 0 -55 23 -71 68 -8 24 -17 32 -35 32 -13 0 -24 6 -24 13 0 6 -19
20 -41 31 -24 11 -59 42 -87 77 -26 32 -107 110 -180 174 -73 64 -144 135
-159 158 -14 23 -46 65 -72 93 -25 28 -56 62 -67 75 -12 13 -28 29 -35 36 -24
21 -37 40 -41 59 -2 11 -13 20 -26 22 -15 2 -22 10 -22 26 0 16 -10 27 -35 39
-19 9 -50 37 -67 62 -18 25 -35 45 -40 45 -4 0 -16 18 -25 40 -10 22 -22 40
-28 40 -5 1 -28 31 -50 68 -22 36 -50 72 -63 78 -13 6 -35 29 -50 50 -14 22
-42 59 -61 84 -19 25 -43 64 -53 87 -10 24 -23 43 -28 43 -6 0 -10 7 -10 15 0
8 -21 37 -47 63 -61 62 -130 170 -145 226 -7 28 -20 48 -38 58 -45 26 -265
415 -401 708 -197 428 -339 797 -413 1076 -116 435 -220 930 -305 1439 l-49
300 -7 525 c-4 334 -3 594 4 715 12 210 49 555 80 747 17 103 107 506 180 798
62 252 183 602 306 885 31 72 66 158 77 193 12 34 26 62 33 62 6 0 26 39 44
88 47 126 242 521 259 524 8 2 26 37 42 78 28 77 117 237 151 271 10 10 19 26
19 34 0 9 6 18 14 21 14 5 77 102 89 137 4 9 13 17 20 17 8 0 31 33 52 74 20
41 49 83 64 94 15 11 49 61 76 111 27 51 58 100 70 109 11 9 30 32 40 50 11
17 23 32 27 32 4 0 8 9 8 20 0 11 6 20 13 21 6 0 29 27 50 60 21 32 63 78 93
101 40 32 54 49 54 68 0 17 9 30 30 42 17 10 47 46 68 80 50 84 130 166 170
174 25 5 32 12 32 30 0 19 5 24 25 24 20 0 25 5 25 24 0 16 7 27 19 31 11 3
28 26 38 50 10 25 22 45 26 45 4 0 18 11 30 24 12 13 34 26 47 28 15 2 30 14
38 31 7 15 20 27 28 27 8 0 18 8 21 17 9 22 69 83 82 83 6 0 16 10 22 22 21
39 77 98 94 98 17 0 127 91 132 109 2 9 14 21 26 26 12 6 28 22 35 37 13 27
90 88 111 88 6 0 28 15 48 33 21 18 50 38 66 45 15 6 27 18 27 27 0 9 9 15 23
15 15 0 29 11 40 30 10 17 31 37 46 44 15 8 34 22 41 31 7 9 30 23 49 31 20 8
41 20 46 27 6 7 31 23 57 36 26 14 49 33 51 43 3 10 14 18 25 18 11 0 22 7 25
15 3 7 29 24 56 36 28 12 51 27 51 34 0 7 11 16 24 19 14 3 44 22 68 42 74 62
645 355 1078 554 385 177 429 194 610 246 403 114 584 152 781 161 l125 6 62
-48 c34 -27 62 -52 62 -56 0 -24 -128 -69 -290 -103 -63 -13 -155 -38 -205
-56 -49 -17 -111 -34 -137 -37 -26 -3 -48 -11 -48 -17 0 -6 17 -33 38 -61 l38
-50 56 3 c63 4 144 22 372 81 88 23 166 39 173 36 10 -3 13 -19 11 -51 l-3
-47 -126 -28 c-69 -15 -152 -38 -184 -50 -70 -26 -130 -78 -146 -126 -14 -44
-7 -148 16 -221 17 -54 76 -132 101 -132 8 0 14 -6 14 -14 0 -28 52 -75 103
-94 67 -25 176 -42 271 -42 64 0 84 4 127 28 43 22 52 24 56 12 3 -8 27 -36
54 -61 27 -26 49 -54 49 -62 0 -9 12 -29 28 -45 15 -16 35 -40 45 -53 12 -16
20 -20 23 -11 3 6 15 12 26 12 18 0 20 4 14 32 -11 55 -46 116 -100 175 l-51
56 0 96 0 96 -32 15 c-22 10 -33 22 -33 36 0 18 -8 22 -52 28 -76 9 -151 7
-168 -4 -13 -8 -12 -19 2 -87 9 -43 14 -81 11 -85 -13 -23 -74 -41 -133 -42
-91 -1 -120 8 -120 39 0 20 -5 25 -24 25 -13 0 -27 8 -31 18 -13 34 -17 158
-6 200 10 35 16 42 36 42 19 0 25 5 25 23 0 22 9 25 205 62 l205 40 0 125 0
126 68 21 c37 12 82 24 100 28 44 9 42 39 -5 87 l-37 38 -106 0 -105 0 -53 46
c-56 49 -112 123 -112 147 0 11 27 21 93 37 300 69 596 107 1032 134 143 9
928 -4 1150 -19z m-1146 -1952 c6 -21 11 -44 11 -50 0 -21 -30 -15 -61 11 -15
13 -34 26 -41 29 -19 8 29 47 58 47 18 0 25 -8 33 -37z m181 -31 c0 -38 -2
-71 -5 -74 -3 -3 -19 8 -35 24 -24 24 -30 38 -30 74 0 44 0 44 35 44 l35 0 0
-68z m170 41 c7 -16 30 -79 51 -140 l38 -113 -41 0 c-23 0 -49 6 -57 14 -9 7
-29 18 -46 23 -35 11 -42 33 -44 133 -1 78 16 110 58 110 21 0 31 -7 41 -27z
m863 11 c22 -4 37 -12 37 -20 0 -11 -20 -14 -90 -14 -71 0 -90 3 -90 14 0 8 6
17 13 19 18 8 86 8 130 1z m-523 -74 c0 -59 0 -60 -28 -60 -22 0 -35 10 -60
45 -18 25 -32 50 -32 55 0 11 25 17 78 19 l42 1 0 -60z m-1087 -10 c-34 -34
-60 -50 -77 -50 -24 0 -26 4 -26 39 0 37 2 40 38 49 20 5 55 10 77 11 l40 1
-52 -50z m1897 37 c0 -23 -32 -59 -66 -73 -55 -23 -64 -19 -64 29 0 24 3 47 7
50 13 13 123 8 123 -6z m-2100 -34 c0 -9 -5 -45 -11 -80 -12 -68 -37 -110 -60
-101 -8 3 -36 38 -63 77 -57 83 -56 88 31 107 82 18 103 17 103 -3z m312 -70
c-11 -15 -32 -65 -47 -110 -15 -46 -35 -93 -45 -105 l-18 -23 -27 25 c-25 23
-80 118 -73 125 9 9 167 121 193 137 29 18 30 18 33 -2 2 -10 -6 -32 -16 -47z
m173 45 c6 -13 22 -25 37 -28 14 -3 36 -17 47 -32 12 -15 30 -29 40 -33 12 -3
21 -19 25 -43 3 -20 8 -52 12 -69 6 -29 4 -33 -15 -33 -13 0 -25 9 -30 23 -5
13 -20 31 -34 40 -22 14 -137 174 -137 191 0 17 46 4 55 -16z m684 -63 c17
-20 31 -42 31 -49 0 -14 -48 -66 -61 -66 -4 0 -12 23 -18 50 -23 106 -7 127
48 65z m551 24 c0 -40 -48 -73 -121 -84 l-46 -7 10 51 10 51 73 0 c46 0 74 -4
74 -11z m186 -6 c3 -10 14 -39 25 -65 10 -26 19 -53 19 -60 -1 -14 -69 -62
-78 -54 -9 9 -21 90 -22 144 0 49 1 52 25 52 16 0 28 -7 31 -17z m-2319 -75
c-6 -47 -35 -80 -89 -103 l-38 -15 0 80 0 80 66 0 67 0 -6 -42z m2763 23 c27
-7 41 -41 17 -41 -20 0 -55 -41 -59 -70 -3 -25 -4 -25 -115 -28 -83 -2 -113 1
-113 9 0 25 51 98 82 118 25 16 48 20 98 20 36 -1 76 -4 90 -8z m-2537 -60
c55 -59 68 -96 41 -116 -26 -20 -39 -18 -69 8 -38 32 -63 157 -31 157 7 0 34
-22 59 -49z m-453 27 c0 -2 7 -52 15 -113 19 -143 19 -143 -7 -147 -15 -2 -24
-11 -26 -26 -3 -20 -8 -23 -44 -20 l-40 3 -35 123 c-25 87 -32 127 -25 134 21
21 161 60 162 46z m2428 -33 c7 -14 12 -48 12 -75 0 -48 -1 -49 -37 -59 -21
-6 -61 -11 -88 -11 -49 0 -50 1 -61 35 l-11 35 32 0 c27 0 34 5 39 25 6 23 69
75 92 75 6 0 16 -11 22 -25z m922 -152 c0 -18 -6 -23 -25 -23 -23 0 -25 3 -25
48 0 26 5 65 12 87 l12 40 12 -65 c7 -36 13 -75 14 -87z m-124 -88 c8 -49 18
-100 21 -112 5 -22 2 -23 -46 -23 -32 0 -53 5 -56 13 -10 26 -44 291 -39 296
3 3 24 13 47 22 l42 17 7 -62 c5 -33 15 -101 24 -151z m577 188 c15 -7 27 -19
27 -26 0 -10 15 -12 59 -9 54 4 66 0 155 -43 l96 -48 0 -73 c0 -61 -3 -74 -16
-74 -8 0 -50 -12 -92 -26 l-77 -26 -78 83 c-78 82 -129 169 -141 237 -5 31 -4
33 17 26 12 -3 34 -13 50 -21z m-4049 -10 c28 -96 31 -296 5 -344 -11 -22 -14
-18 -51 54 -21 42 -43 77 -48 77 -6 0 -10 11 -10 25 0 15 -6 25 -15 25 -28 0
-58 83 -46 127 6 23 16 30 57 40 73 17 102 16 108 -4z m1406 -32 c5 -11 10
-33 10 -49 0 -25 -6 -32 -31 -41 -48 -17 -49 -16 -49 49 0 60 0 60 30 60 19 0
33 -7 40 -19z m-846 -40 c3 -5 -8 -14 -26 -20 -40 -14 -38 -14 -38 9 0 15 7
20 29 20 17 0 32 -4 35 -9z m-944 -67 c0 -19 -8 -28 -34 -39 -19 -8 -43 -26
-55 -41 -13 -16 -28 -24 -42 -22 l-21 3 21 27 c12 15 40 37 61 49 22 13 40 29
40 36 0 7 7 13 15 13 9 0 15 -10 15 -26z m3407 -7 c-14 -22 -97 -70 -105 -62
-2 2 2 20 9 39 10 28 19 36 39 37 14 0 34 4 45 8 27 11 30 6 12 -22z m245 -54
c10 -22 21 -75 24 -116 l7 -74 -44 -16 c-105 -37 -109 -38 -109 -16 0 39 40
219 57 254 14 29 19 33 31 22 9 -6 24 -31 34 -54z m-474 20 c5 -10 13 -44 16
-75 6 -45 4 -58 -6 -58 -17 0 -158 -160 -183 -209 -27 -52 -72 -87 -121 -95
-38 -7 -43 -5 -61 21 -51 72 -54 161 -9 273 42 102 54 111 211 145 89 20 142
19 153 -2z m1142 -92 c0 -88 -8 -141 -21 -141 -10 0 -12 179 -3 204 14 37 24
11 24 -63z m-4119 27 c24 -19 55 -57 73 -90 17 -32 37 -58 44 -58 19 0 15 -63
-6 -80 -16 -14 -84 -43 -87 -37 -10 13 -85 231 -90 260 -9 48 8 49 66 5z
m1096 -13 c25 -44 40 -135 27 -158 -7 -12 -21 -4 -71 44 -70 65 -81 101 -42
140 30 30 60 21 86 -26z m-469 19 c7 -2 12 -14 10 -26 -3 -21 -19 -27 -148
-60 -80 -21 -148 -37 -152 -35 -9 3 67 83 99 104 41 27 134 35 191 17z m3236
-67 c11 -39 23 -57 46 -70 24 -15 30 -25 30 -52 0 -27 -6 -36 -30 -49 -16 -8
-30 -10 -30 -5 0 5 -9 9 -20 9 -12 0 -24 10 -29 23 -5 12 -21 37 -35 56 -35
47 -35 103 -1 137 33 33 48 22 69 -49z m-614 -22 c0 -77 -2 -85 -19 -85 -21 0
-66 47 -76 80 -4 12 -1 28 7 37 14 17 68 53 81 53 4 0 7 -38 7 -85z m-2412 3
c11 -18 22 -46 24 -63 3 -27 0 -30 -33 -35 -20 -4 -57 -18 -82 -33 -64 -38
-71 -36 -63 21 11 77 25 102 70 122 56 25 62 25 84 -12z m-1348 -35 c0 -43
-18 -166 -36 -250 -6 -29 -11 -33 -38 -33 -19 0 -52 14 -85 36 -29 20 -68 42
-86 50 -26 11 -37 23 -44 51 -21 74 -16 88 37 111 66 29 207 75 245 81 4 0 7
-20 7 -46z m5667 -55 c31 -33 53 -90 53 -139 l0 -42 -22 24 c-13 14 -37 30
-55 38 -37 15 -53 52 -53 123 l0 49 28 -15 c15 -8 37 -25 49 -38z m-5459 -30
c-3 -66 -5 -73 -25 -76 -16 -2 -26 5 -37 27 -26 49 -21 79 17 101 17 11 36 20
40 20 4 0 7 -33 5 -72z m2530 -15 c37 -88 65 -215 69 -323 4 -93 2 -109 -16
-137 -44 -69 -106 -22 -153 115 -18 54 -23 88 -23 177 0 61 6 134 14 163 13
51 14 52 51 52 35 0 39 -3 58 -47z m-2328 4 c0 -8 11 -36 25 -62 13 -27 23
-49 22 -50 -1 0 -24 -6 -51 -13 -44 -12 -51 -11 -70 6 -12 11 -29 23 -38 28
-16 9 -17 12 -2 32 8 12 26 22 40 22 19 0 24 -5 24 -25 0 -14 5 -25 10 -25 6
0 10 23 10 50 0 38 4 50 15 50 8 0 15 -6 15 -13z m461 3 c32 -18 22 -38 -23
-51 -24 -6 -46 -13 -49 -14 -3 -2 -10 14 -16 36 l-10 39 39 0 c22 0 48 -5 59
-10z m195 -86 c-7 -19 -57 -37 -68 -26 -13 13 20 89 46 108 20 14 21 13 24
-27 2 -23 1 -48 -2 -55z m3142 84 c7 -7 12 -35 12 -64 0 -49 -2 -53 -31 -63
-18 -6 -47 -11 -65 -11 -32 0 -33 1 -24 26 6 14 10 48 10 75 l0 49 43 0 c24 0
48 -5 55 -12z m-2610 -48 c44 -40 40 -65 -12 -64 -20 1 -41 5 -46 10 -9 9 10
84 20 84 3 0 20 -14 38 -30z m4268 -5 c33 -25 40 -35 26 -35 -33 0 -82 30 -82
51 0 25 2 25 56 -16z m-1135 -52 c19 -38 36 -71 37 -75 2 -5 -8 -8 -23 -8 -39
0 -94 71 -95 123 0 22 4 27 24 27 19 0 30 -13 57 -67z m748 -35 c10 -84 31
-353 31 -403 0 -14 -10 -24 -29 -32 l-29 -10 -11 74 c-6 40 -11 113 -11 161 0
102 20 302 30 302 4 0 13 -42 19 -92z m-5881 55 c12 -3 22 -9 22 -13 0 -5 -14
-46 -32 -92 -21 -56 -43 -94 -67 -118 -20 -20 -49 -53 -65 -74 l-29 -39 -19
22 c-25 32 -48 115 -48 177 0 68 7 84 36 84 13 0 24 6 24 13 0 7 22 19 50 26
27 7 53 17 56 23 3 5 16 7 28 3 11 -4 31 -9 44 -12z m1722 -27 c0 -14 -8 -31
-18 -38 -9 -7 -30 -30 -45 -50 -16 -22 -37 -38 -48 -38 -18 0 -20 6 -17 62 l3
61 40 13 c66 20 85 18 85 -10z m2419 -18 c38 -9 51 -16 53 -32 2 -13 12 -22
26 -24 18 -3 23 -9 20 -29 -3 -23 -14 -29 -108 -59 -58 -18 -113 -33 -123 -33
-10 -1 -20 -8 -23 -16 -4 -10 -20 -15 -45 -15 -36 0 -39 2 -35 23 3 12 7 38
11 58 3 23 18 47 43 71 76 72 92 77 181 56z m-2935 -80 c-20 -40 -37 -74 -39
-76 -1 -1 -14 16 -29 38 -16 24 -26 53 -26 75 l0 35 65 0 65 0 -36 -72z m1407
52 c25 0 28 -4 40 -57 6 -32 17 -84 24 -116 14 -67 12 -70 -51 -65 l-39 3 -12
100 c-16 135 -16 162 -1 147 7 -7 24 -12 39 -12z m2359 1 c0 -11 -10 -44 -21
-75 -19 -50 -25 -56 -50 -56 -26 0 -29 4 -29 31 0 16 5 50 11 75 11 43 13 44
50 44 32 0 39 -4 39 -19z m1458 -28 c67 -5 72 -8 72 -29 0 -16 7 -24 23 -26
26 -4 25 -33 -4 -88 -57 -108 -61 -122 -56 -174 7 -62 92 -237 119 -244 9 -2
20 -13 24 -24 10 -32 64 -88 106 -109 21 -11 38 -25 38 -32 0 -7 16 -19 35
-26 20 -7 43 -24 52 -38 17 -25 18 -25 122 -21 158 7 208 39 234 149 11 44 15
49 39 49 29 0 68 -30 68 -52 0 -7 -12 -38 -26 -68 -18 -40 -28 -82 -34 -154
-11 -132 -18 -138 -103 -97 -126 60 -231 73 -363 43 -66 -14 -103 3 -134 63
-14 28 -30 65 -37 83 -8 24 -17 32 -36 32 -27 0 -31 10 -127 335 -38 131 -52
166 -77 191 -39 38 -53 88 -53 183 0 71 1 73 23 67 12 -4 55 -9 95 -13z
m-1803 -119 c-18 -67 -60 -126 -107 -150 -29 -15 -31 -15 -23 2 23 56 45 141
45 174 0 32 4 39 29 50 16 6 38 21 48 32 18 20 18 20 21 -13 2 -19 -4 -61 -13
-95z m-4342 38 c21 -23 19 -37 -20 -119 -13 -29 -29 -53 -34 -53 -17 0 -68 94
-80 146 -6 29 -9 64 -5 78 l6 26 58 -29 c31 -16 65 -38 75 -49z m1747 43 c0
-43 37 -145 60 -165 17 -15 40 -70 40 -96 0 -19 -26 -18 -34 1 -3 8 -25 20
-50 26 -42 10 -45 14 -66 70 -12 33 -35 75 -51 94 -16 18 -25 36 -20 39 5 4
12 20 16 36 6 28 9 30 56 30 l49 0 0 -35z m358 -2 c18 -26 42 -86 42 -104 0
-5 -22 -9 -50 -9 l-50 0 0 51 c0 50 13 89 30 89 5 0 17 -12 28 -27z m-1353
-51 c41 -112 78 -153 194 -212 62 -31 63 -32 56 -63 -3 -18 -9 -47 -12 -64 -4
-26 -10 -33 -29 -33 -18 0 -24 -6 -24 -21 0 -12 -7 -27 -16 -34 -12 -8 -18
-33 -22 -87 -5 -90 14 -142 79 -213 70 -76 107 -92 257 -112 107 -14 132 -20
132 -33 0 -9 7 -43 15 -75 44 -167 129 -255 248 -255 65 0 144 25 160 51 7 11
22 19 34 19 14 0 23 6 23 15 0 9 9 15 25 15 14 0 25 5 25 10 0 6 18 10 40 10
47 0 46 4 25 -125 -17 -108 -78 -315 -97 -330 -7 -5 -21 -22 -31 -37 -36 -56
-125 -76 -225 -51 -73 18 -92 31 -92 62 0 14 -13 27 -37 40 -21 10 -54 36 -73
58 -19 21 -61 54 -92 73 -46 28 -58 40 -58 60 0 21 -12 32 -73 64 -39 22 -89
59 -110 83 -22 24 -82 69 -135 101 -83 49 -123 81 -188 152 -32 34 -56 50 -74
50 -12 0 -24 10 -30 24 -5 13 -36 40 -69 61 -34 20 -66 45 -71 56 -6 10 -17
19 -25 19 -20 0 -30 83 -16 131 7 22 27 72 46 111 l35 72 0 223 0 223 23 0
c12 1 36 7 52 15 17 8 47 13 69 12 38 -2 39 -3 61 -65z m297 13 c6 -14 17 -25
25 -25 11 0 13 -13 11 -52 l-3 -53 -44 -3 c-74 -5 -111 58 -56 94 15 10 25 26
25 40 0 32 27 31 42 -1z m4808 22 c0 -2 -9 -30 -20 -62 -11 -33 -23 -83 -27
-112 -4 -35 -10 -53 -19 -53 -11 0 -14 25 -14 115 l0 115 40 0 c22 0 40 -2 40
-3z m-5449 -74 c6 -16 13 -46 16 -68 l5 -40 -41 42 c-49 51 -56 93 -16 93 19
0 28 -8 36 -27z m1082 -25 c44 -3 52 -6 55 -25 4 -29 -33 -53 -80 -53 -34 0
-40 4 -55 34 -10 22 -13 44 -9 61 7 28 7 28 22 7 11 -16 27 -22 67 -24z m3523
17 c27 -8 63 -26 79 -39 43 -35 23 -50 -73 -54 -68 -4 -187 10 -200 22 -13 14
11 55 40 69 41 21 90 21 154 2z m-896 -106 l-13 -91 -31 6 c-76 13 -96 19 -96
28 0 13 142 160 148 153 3 -2 -1 -46 -8 -96z m-4294 -16 c14 -39 24 -79 21
-87 -10 -25 -87 -58 -149 -63 -49 -5 -58 -3 -58 11 0 9 -4 16 -9 16 -15 0 -20
28 -11 60 5 18 27 52 50 76 22 24 40 48 40 53 0 5 17 16 38 24 34 14 38 14 44
-1 3 -10 19 -49 34 -89z m379 63 c38 -57 20 -197 -40 -318 -43 -85 -68 -106
-80 -68 -3 11 -13 20 -21 20 -11 0 -14 21 -14 106 l0 106 44 72 c25 39 48 83
51 98 6 23 10 26 26 17 10 -5 26 -20 34 -33z m5804 -38 c11 -46 24 -104 27
-130 7 -48 7 -48 -22 -48 -23 0 -43 13 -83 54 -53 54 -53 54 -46 103 3 27 9
54 13 60 6 9 66 40 83 42 3 1 16 -36 28 -81z m-6649 39 c0 -26 -6 -36 -25 -45
-23 -11 -25 -10 -25 15 0 26 25 63 42 63 4 0 8 -15 8 -33z m-130 5 c0 -5 -16
-26 -35 -48 l-34 -39 -1 36 c0 29 5 37 28 46 35 14 42 15 42 5z m4688 -9 c-9
-10 -26 -50 -38 -89 -22 -68 -26 -73 -62 -85 -36 -12 -41 -11 -80 17 -49 35
-77 70 -80 104 -3 23 3 25 87 46 50 13 112 23 139 23 46 1 48 0 34 -16z m2589
-15 c18 -18 33 -36 33 -40 0 -4 -16 -8 -35 -8 -30 0 -35 3 -35 24 0 13 -7 26
-15 30 -8 3 -15 10 -15 16 0 20 35 9 67 -22z m-137 -19 c0 -11 10 -29 23 -39
20 -17 22 -28 25 -129 l4 -111 -30 0 c-26 0 -32 7 -66 80 -21 44 -40 98 -43
120 -5 35 -2 45 22 71 34 34 65 39 65 8z m-4649 -161 c95 -168 90 -193 -15
-81 -39 42 -76 85 -83 97 -22 38 -14 131 11 123 6 -2 45 -65 87 -139z m2739
137 c0 -3 -23 -39 -51 -80 -40 -59 -56 -75 -76 -75 -21 0 -24 4 -21 27 2 20
10 29 32 34 38 10 66 37 66 64 0 12 3 25 7 28 8 8 43 9 43 2z m-4063 -37 c33
-12 33 -12 32 -78 -1 -68 -22 -147 -32 -120 -10 26 -43 210 -38 210 2 0 20 -5
38 -12z m1788 2 c10 -16 25 -187 19 -205 -4 -10 -19 -15 -43 -15 -50 0 -61 25
-61 140 l0 90 39 0 c22 0 43 -5 46 -10z m-917 -67 l-3 -48 -78 -3 c-69 -2 -78
-1 -75 14 3 16 119 84 145 84 11 0 13 -12 11 -47z m3553 -58 c16 -71 20 -115
17 -171 -7 -102 -18 -109 -53 -32 -37 82 -46 197 -20 263 9 25 21 43 25 40 5
-3 19 -48 31 -100z m-2406 45 c16 -17 19 -36 20 -103 l0 -82 -31 -3 c-43 -4
-78 37 -63 74 5 14 9 40 9 58 0 19 3 47 6 64 7 35 22 33 59 -8z m2637 17 c40
-8 90 -18 111 -21 l37 -7 0 -64 c0 -61 -1 -65 -22 -65 -13 0 -63 18 -113 39
-84 36 -90 41 -96 72 -4 19 -10 43 -14 53 -7 16 -5 18 8 13 9 -3 49 -13 89
-20z m-6022 -48 c0 -20 -25 -48 -42 -49 -13 0 -9 24 8 48 19 28 34 28 34 1z
m2401 -11 c17 -41 16 -133 -1 -173 l-13 -30 -20 45 c-13 28 -23 73 -25 118 -4
71 -4 72 21 72 18 0 28 -8 38 -32z m426 15 c21 -19 49 -115 38 -133 -13 -21
-43 -10 -50 18 -3 15 -19 48 -35 72 -17 25 -30 48 -30 53 0 14 58 7 77 -10z
m4676 -13 c18 0 19 -5 13 -62 -12 -108 -23 -138 -51 -138 -30 0 -30 5 -13 132
8 60 15 85 22 78 5 -5 19 -10 29 -10z m-823 -111 c-21 -57 -83 -139 -95 -127
-10 10 10 58 65 151 37 65 46 75 48 55 2 -14 -6 -49 -18 -79z m240 63 c27 -20
66 -89 56 -99 -3 -4 -32 6 -64 21 -46 22 -61 35 -70 60 -7 18 -12 36 -12 40 0
13 63 -3 90 -22z m-1804 -4 c2 -2 1 -13 -2 -25 -4 -15 -25 -28 -75 -46 l-70
-25 -77 20 c-42 11 -81 23 -85 27 -12 12 38 41 86 51 38 8 214 6 223 -2z
m-3866 -3 c0 -2 9 -40 21 -84 l21 -80 -30 -31 c-21 -21 -40 -30 -62 -30 -29 0
-32 3 -26 23 3 12 13 60 22 107 9 47 18 88 21 93 5 8 33 10 33 2z m898 -67
c-13 -20 -77 -52 -145 -73 -21 -6 -23 -3 -23 34 0 37 3 41 33 50 17 5 58 10
91 10 58 1 58 1 44 -21z m3232 -78 c0 -99 0 -100 -24 -100 -19 0 -24 6 -30 38
-12 75 -7 120 16 142 12 11 25 20 30 20 4 0 8 -45 8 -100z m140 76 c13 -36 17
-148 5 -153 -6 -2 -16 26 -23 64 -6 38 -15 78 -18 91 -9 31 24 30 36 -2z
m-319 -141 c-10 -72 -39 -135 -61 -135 -4 0 -19 -19 -33 -42 -25 -43 -73 -95
-81 -87 -2 2 4 66 13 143 l16 138 60 48 c58 46 61 47 79 30 17 -17 18 -24 7
-95z m749 53 c16 -35 32 -75 36 -90 6 -27 5 -28 -34 -28 -39 0 -42 2 -51 38
-6 20 -11 61 -11 90 0 74 23 70 60 -10z m168 -44 c3 -36 0 -42 -20 -46 -13 -3
-30 -8 -39 -12 -12 -5 -18 4 -27 44 -7 29 -12 60 -12 71 0 18 1 18 48 1 45
-17 47 -20 50 -58z m-6268 -19 c0 -73 -1 -75 -25 -75 -16 0 -25 -6 -25 -15 0
-19 -21 -19 -67 0 -35 15 -35 16 -30 60 7 69 45 103 115 104 l32 1 0 -75z
m2490 50 l50 -25 -15 -30 c-18 -35 -33 -46 -46 -33 -12 12 -51 113 -44 113 3
0 28 -11 55 -25z m2489 12 c49 -13 63 -31 31 -40 -11 -3 -24 -15 -28 -26 -5
-16 -31 -30 -87 -50 -44 -16 -104 -39 -132 -52 -29 -12 -55 -20 -59 -17 -10
11 37 137 63 168 23 28 29 30 96 29 40 0 92 -6 116 -12z m2839 -1 c15 -8 37
-25 50 -39 l23 -25 -32 -11 c-18 -6 -52 -11 -75 -11 -43 0 -44 0 -44 34 0 25
7 39 22 50 27 19 23 19 56 2z m-968 -11 c0 -3 -16 -44 -35 -92 -19 -48 -35
-97 -35 -110 0 -15 -6 -23 -16 -23 -14 0 -16 8 -11 54 7 67 40 146 61 146 9 0
16 7 16 15 0 8 5 15 10 15 6 0 10 -2 10 -5z m253 -51 c52 -42 57 -49 57 -85 0
-55 -18 -50 -68 19 -23 31 -51 69 -63 85 -19 25 -19 27 -2 27 10 0 44 -21 76
-46z m-6573 11 c0 -19 -31 -35 -69 -35 -37 0 -43 26 -8 40 36 14 77 12 77 -5z
m1740 -4 c-5 -11 -10 -33 -10 -50 0 -30 -2 -31 -41 -31 l-40 0 3 38 c2 30 7
38 26 40 12 2 22 8 22 13 0 5 11 9 25 9 22 0 24 -3 15 -19z m625 -45 c7 -12
16 -31 20 -43 5 -20 3 -23 -19 -23 -15 0 -26 6 -26 13 0 7 -16 19 -35 26 -32
11 -65 52 -65 79 0 16 111 -30 125 -52z m934 -298 c89 -455 101 -532 101 -640
0 -117 -9 -138 -58 -138 -45 0 -66 27 -77 105 -4 28 -28 172 -55 320 -51 284
-75 456 -86 618 l-6 97 55 0 55 0 71 -362z m-1163 295 c-2 -10 -10 -44 -17
-75 -7 -32 -16 -58 -20 -58 -4 0 -9 -12 -11 -27 -5 -44 -28 -41 -28 5 0 34 28
134 45 162 11 18 37 11 31 -7z m2414 -164 l0 -150 -37 3 c-38 3 -38 3 -46 58
-5 30 -7 86 -5 124 3 60 7 71 31 92 54 46 57 39 57 -127z m-5331 52 c-5 -92
-24 -123 -91 -143 -38 -11 -40 -11 -80 29 l-41 41 54 58 c50 52 114 93 148 94
10 0 12 -17 10 -79z m869 28 c17 -71 16 -79 -12 -79 -32 0 -176 78 -176 95 0
16 60 33 126 34 l51 1 11 -51z m1778 34 c21 -28 17 -33 -26 -33 -36 0 -40 3
-40 25 0 20 5 25 26 25 15 0 33 -8 40 -17z m5914 -9 c17 -44 12 -72 -12 -76
-16 -2 -24 -11 -26 -29 -2 -16 -13 -32 -28 -39 -13 -7 -24 -20 -24 -28 0 -25
-23 -7 -36 29 -16 43 -17 97 -3 138 10 30 13 31 65 31 49 0 55 -2 64 -26z
m-2765 -34 c19 -36 19 -40 0 -40 -9 0 -18 -7 -21 -15 -10 -25 -205 -155 -232
-155 -3 0 8 15 25 33 17 17 49 65 72 104 59 103 125 134 156 73z m-5298 -51
c-5 -59 -49 -169 -67 -169 -13 0 -23 84 -15 126 12 64 36 104 63 104 24 0 25
-1 19 -61z m5474 19 c21 -80 39 -173 39 -207 l0 -35 -40 54 c-52 69 -77 123
-85 183 l-7 47 40 0 c40 0 42 -1 53 -42z m1609 11 c0 -25 -16 -102 -46 -215
-3 -12 -37 -25 -177 -65 -64 -18 -81 -27 -88 -47 -14 -36 -64 -97 -116 -139
-36 -30 -46 -34 -53 -22 -13 19 -50 180 -50 213 0 25 2 26 58 26 71 0 140 20
193 54 32 22 50 26 109 26 l70 0 -6 28 c-3 15 -8 35 -11 45 -2 9 1 42 7 72
l11 55 50 0 c48 0 49 -1 49 -31z m-2530 -57 c0 -68 -20 -92 -75 -92 l-35 0 0
65 c0 73 10 84 73 85 l37 0 0 -58z m2233 -10 c26 -48 26 -48 6 -65 -10 -9 -28
-17 -39 -17 -18 0 -20 7 -20 65 0 80 16 85 53 17z m-4133 13 c28 -9 36 -18 38
-41 1 -16 -2 -35 -7 -43 -18 -28 -111 59 -111 104 0 6 13 3 80 -20z m-2927
-82 c-7 -52 -73 -193 -90 -193 -7 0 -13 -4 -13 -9 0 -14 -76 -41 -114 -41 -25
0 -38 7 -51 26 -36 55 -140 68 -305 39 -47 -8 -91 -15 -98 -15 -18 0 -7 16 60
90 l57 63 103 -21 c172 -36 185 -34 320 36 65 34 122 62 127 62 6 0 7 -17 4
-37z m2688 -36 c-18 -18 -25 1 -11 30 l14 28 4 -24 c2 -13 -1 -28 -7 -34z
m1916 21 c12 -11 26 -32 32 -46 7 -17 34 -39 71 -60 45 -25 64 -42 75 -69 18
-43 19 -53 2 -53 -16 0 -63 -123 -83 -220 -11 -53 -14 -102 -10 -167 5 -78 10
-98 35 -137 16 -26 39 -71 51 -101 20 -50 25 -55 54 -55 102 1 264 77 306 145
10 17 30 37 42 44 14 7 38 46 63 102 l40 89 38 0 c24 0 37 -5 37 -13 0 -39
169 -49 258 -15 73 28 117 28 145 0 45 -46 20 -156 -88 -387 -30 -64 -55 -123
-55 -131 0 -9 -11 -14 -29 -14 -21 0 -32 -6 -36 -21 -12 -38 -78 -101 -163
-156 l-83 -53 -117 0 c-112 0 -122 2 -219 39 -121 45 -150 63 -155 92 -2 15
-15 26 -42 36 -53 18 -100 55 -144 114 -20 27 -42 49 -49 49 -8 0 -18 12 -23
26 -6 15 -40 94 -76 176 -55 125 -69 167 -80 247 -26 181 -13 380 26 426 10
11 23 30 29 43 6 12 18 22 25 22 7 0 19 18 26 40 13 38 15 40 44 34 17 -3 41
-15 53 -26z m348 -23 l0 -50 -53 -3 -53 -3 3 43 c3 39 6 44 38 55 57 20 65 14
65 -42z m-4615 -40 c0 -77 -2 -85 -19 -85 -19 0 -31 25 -31 67 0 29 29 103 41
103 5 0 9 -38 9 -85z m313 74 c31 -8 37 -14 31 -27 -4 -9 -10 -43 -12 -74 -4
-56 -5 -58 -33 -58 -26 0 -33 8 -65 72 -34 68 -35 72 -18 85 22 16 47 16 97 2z
m5869 -100 c31 -104 66 -285 82 -419 9 -69 18 -142 21 -162 4 -30 2 -38 -10
-38 -8 0 -15 -7 -15 -15 0 -23 -63 -20 -84 4 -10 11 -25 45 -34 78 -14 49 -17
101 -15 330 1 150 5 278 8 283 14 22 29 2 47 -61z m1046 14 l3 -53 -30 0 c-30
0 -31 1 -31 48 0 55 5 64 35 60 17 -3 20 -11 23 -55z m796 17 c9 -22 16 -47
16 -55 0 -22 65 -8 132 28 56 30 57 31 77 13 12 -11 32 -39 46 -62 14 -24 30
-44 35 -44 22 0 8 -43 -24 -75 -34 -34 -46 -39 -120 -49 -44 -6 -112 24 -170
75 -47 40 -131 168 -120 179 8 8 71 26 100 29 7 1 19 -17 28 -39z m-488 5 c72
-24 146 -63 159 -85 17 -27 -122 -3 -207 37 -46 21 -58 31 -58 50 0 29 13 29
106 -2z m-4962 -10 c29 -13 36 -20 36 -44 0 -31 -12 -44 -53 -60 l-27 -11 0
65 c0 36 2 65 4 65 2 0 20 -7 40 -15z m-1484 -25 c0 -5 11 -10 25 -10 15 0 25
-6 25 -14 0 -7 13 -19 30 -26 16 -7 47 -32 69 -55 66 -72 88 -149 54 -187 -20
-22 -36 -23 -54 -2 -7 9 -46 38 -86 65 -40 27 -77 58 -83 69 -6 12 -21 20 -35
20 -19 0 -25 5 -25 23 0 14 -9 26 -22 32 -18 8 -24 20 -26 53 l-3 42 65 0 c37
0 66 -4 66 -10z m4110 4 c0 -3 -7 -36 -15 -73 -14 -60 -20 -71 -53 -92 -24
-16 -46 -42 -62 -76 -21 -44 -29 -53 -52 -53 -25 0 -27 5 -42 68 -8 37 -18 83
-21 103 l-7 35 69 32 c113 52 183 74 183 56z m-4343 -39 c36 -24 61 -54 69
-82 3 -13 14 -23 24 -23 10 0 25 -11 34 -25 9 -14 34 -34 56 -45 22 -11 46
-33 54 -48 18 -35 66 -72 137 -107 48 -24 59 -35 88 -91 19 -36 41 -69 51 -74
10 -5 21 -21 24 -34 3 -14 26 -39 51 -56 25 -17 45 -35 45 -39 0 -4 10 -13 23
-18 14 -7 34 -36 52 -76 19 -42 38 -70 54 -77 19 -9 22 -16 18 -40 -12 -59
-41 -105 -68 -108 -23 -3 -33 9 -90 95 -35 54 -99 136 -142 182 -72 76 -224
261 -244 295 -4 7 -63 48 -130 90 -140 88 -192 137 -227 209 -40 86 -41 95 -9
99 42 5 99 -7 130 -27z m-1077 6 c9 -18 -2 -116 -15 -129 -3 -3 -16 1 -30 8
-22 12 -25 20 -25 70 0 31 3 60 7 63 13 14 53 6 63 -12z m2680 -46 c0 -51 -3
-65 -15 -65 -16 0 -39 31 -49 67 -8 24 23 63 49 63 12 0 15 -14 15 -65z m4644
23 c3 -24 9 -53 12 -66 6 -22 4 -23 -32 -20 -36 3 -40 6 -54 46 -15 43 -14 44
9 63 39 32 57 25 65 -23z m283 22 c39 -24 47 -50 41 -143 -5 -71 -23 -127 -44
-134 -18 -6 -47 108 -52 205 -5 103 -2 107 55 72z m-7217 -91 c0 -14 -7 -19
-25 -19 -23 0 -25 4 -25 46 l0 47 25 -27 c14 -15 25 -36 25 -47z m5198 6 c10
-21 18 -25 56 -25 l44 0 -11 -37 c-11 -35 -32 -62 -49 -63 -7 0 -78 132 -78
145 0 16 29 1 38 -20z m1573 -2 c69 -33 74 -46 67 -176 -3 -63 -10 -93 -28
-125 -13 -23 -27 -42 -31 -42 -4 0 -12 33 -19 73 -32 199 -31 194 -56 207 -24
13 -31 41 -18 74 8 22 16 20 85 -11z m-2304 -37 c-3 -8 -9 -30 -12 -49 -6 -32
-10 -34 -71 -49 -35 -8 -64 -12 -64 -9 0 11 31 54 63 89 21 22 40 32 60 32 21
0 28 -4 24 -14z m146 -13 c8 -16 18 -38 21 -50 6 -20 4 -23 -18 -23 -14 0 -26
5 -26 10 0 6 -9 10 -20 10 -11 0 -20 6 -20 14 0 12 37 66 45 66 3 0 11 -12 18
-27z m2007 23 c0 -2 -13 -29 -29 -61 -17 -33 -37 -87 -47 -122 -16 -58 -19
-63 -44 -63 -28 0 -28 0 -18 43 11 44 33 77 53 77 6 0 18 29 25 65 12 57 16
65 37 65 13 0 23 -2 23 -4z m-7521 -40 c6 -4 11 -24 11 -45 0 -37 -2 -39 -51
-60 -64 -26 -81 -26 -104 -1 -10 11 -28 20 -39 20 -26 0 -60 36 -52 55 13 34
192 57 235 31z m8495 -18 c55 -11 57 -12 35 -24 -13 -7 -34 -13 -47 -14 -25 0
-72 27 -72 41 0 12 15 11 84 -3z m-7765 -50 c40 -19 69 -41 80 -59 9 -16 22
-29 29 -29 6 0 12 -11 12 -25 0 -25 -1 -25 -90 -25 -162 0 -225 54 -175 150
13 26 19 29 48 24 17 -3 61 -19 96 -36z m5195 -25 c21 -74 29 -87 54 -91 27
-4 46 31 38 70 -5 26 -3 29 12 23 9 -4 37 -14 61 -23 41 -14 43 -16 25 -29
-31 -23 -94 -54 -151 -74 l-54 -18 -39 27 c-27 19 -39 35 -40 51 0 23 57 120
72 121 4 0 14 -26 22 -57z m1944 25 c27 -35 25 -138 -4 -138 -10 0 -14 13 -14
49 0 27 -4 61 -10 75 -7 20 -6 26 4 26 7 0 18 -6 24 -12z m399 -51 c12 -17 33
-62 47 -99 l26 -68 -24 0 c-13 0 -43 12 -65 27 l-41 27 0 71 c0 96 14 106 57
42z m-7272 -27 c37 -33 72 -60 76 -60 5 0 9 -11 9 -24 0 -13 7 -26 15 -30 9
-3 15 -18 15 -40 0 -31 -6 -38 -62 -76 l-63 -42 -3 104 -3 103 -30 14 c-32 14
-49 45 -49 87 0 37 21 29 95 -36z m8242 42 c6 -4 23 -24 37 -45 25 -36 25 -37
5 -47 -11 -6 -22 -24 -26 -41 -7 -37 -18 -37 -37 -1 -8 16 -22 34 -31 42 -11
9 -14 22 -9 44 10 50 31 67 61 48z m-9517 -48 c49 -33 56 -74 15 -92 -39 -18
-48 -15 -114 28 -56 38 -75 60 -51 60 6 0 10 7 10 15 0 27 93 20 140 -11z
m5585 -28 c-22 -33 -135 -130 -135 -115 0 6 5 29 12 50 8 28 17 39 30 39 28 0
58 18 58 35 0 9 10 15 25 15 25 0 25 -1 10 -24z m195 -9 c35 -17 46 -28 48
-50 4 -30 -21 -67 -45 -67 -7 0 -13 11 -13 25 0 16 -6 25 -15 25 -16 0 -35 38
-35 71 0 24 4 23 60 -4z m-5432 -44 c2 -13 -5 -27 -20 -37 -33 -23 -38 -20
-38 25 0 38 1 40 28 37 19 -2 28 -9 30 -25z m386 1 c10 -40 -30 -144 -55 -144
-10 0 -12 153 -2 163 3 4 16 7 29 7 15 0 24 -8 28 -26z m7171 -65 c27 -36 45
-72 45 -88 0 -27 -24 -71 -40 -71 -19 0 -71 100 -72 138 0 38 9 82 18 82 2 0
24 -27 49 -61z m-8055 15 c-6 -14 -10 -39 -10 -55 0 -24 -4 -29 -25 -29 -27 0
-45 25 -45 62 0 33 18 48 57 48 31 0 32 -1 23 -26z m2112 7 c-12 -34 -52 -72
-95 -91 -23 -11 -43 -15 -45 -10 -2 5 8 35 22 65 l25 55 50 0 c46 0 50 -2 43
-19z m6808 -11 c0 -24 -4 -30 -21 -30 -22 0 -48 25 -49 48 0 7 13 12 35 12 32
0 35 -2 35 -30z m-8600 -32 c14 -23 20 -51 20 -90 0 -55 -1 -58 -25 -58 -20 0
-25 -5 -25 -25 0 -23 -3 -25 -51 -25 -45 0 -50 2 -44 18 5 9 10 61 13 115 l4
97 44 0 c39 0 47 -4 64 -32z m300 -8 c0 -40 -15 -54 -26 -25 -8 20 4 65 16 65
6 0 10 -18 10 -40z m679 29 c28 -10 31 -15 31 -50 l0 -39 -50 0 c-27 0 -50 5
-50 10 0 6 -22 10 -50 10 -49 0 -50 1 -50 29 0 28 2 30 63 39 34 5 65 10 68
11 3 0 20 -4 38 -10z m-1349 -256 c134 -61 136 -62 228 -62 105 -1 101 4 77
-96 -9 -37 -14 -113 -15 -197 0 -154 2 -150 -77 -163 -36 -6 -55 -1 -136 35
-106 46 -166 92 -191 145 -9 19 -21 77 -26 128 -4 50 -16 126 -25 167 -19 87
-17 221 6 260 13 23 14 19 19 -65 l5 -90 135 -62z m3400 170 c122 -96 219
-197 290 -304 35 -52 71 -103 80 -114 10 -11 22 -47 28 -80 6 -33 12 -67 14
-75 2 -12 -8 -15 -47 -15 -46 0 -50 2 -53 25 -2 17 -15 32 -43 48 -38 22 -99
93 -99 116 0 6 -14 17 -30 24 -31 14 -95 96 -146 189 -16 29 -36 53 -45 53
-21 0 -56 76 -64 143 -7 52 -6 57 12 57 10 0 57 -30 103 -67z m4530 42 c0 -14
-11 -37 -25 -51 -14 -14 -25 -29 -25 -34 0 -6 -7 -10 -15 -10 -11 0 -15 11
-15 38 0 31 6 41 33 59 42 28 47 28 47 -2z m608 -31 l97 -36 26 -64 27 -64
-27 0 c-39 0 -181 88 -208 129 -21 31 -31 71 -18 71 3 0 49 -16 103 -36z
m-2770 -61 c2 -51 -1 -83 -7 -83 -22 0 -61 75 -61 116 0 44 9 54 45 51 18 -2
20 -10 23 -84z m-4700 65 c18 -18 14 -108 -8 -172 -27 -79 -26 -79 -70 -51
-22 14 -44 25 -50 25 -19 0 -10 46 27 128 32 73 39 82 63 82 14 0 31 -5 38
-12z m1180 -29 c3 -33 0 -37 -25 -42 -15 -3 -36 -9 -45 -12 -13 -5 -18 1 -24
29 -9 48 8 68 55 64 33 -3 36 -6 39 -39z m3690 11 c13 -22 6 -46 -22 -70 -14
-11 -16 -6 -16 43 0 59 12 68 38 27z m2435 -46 c9 -66 4 -117 -19 -186 -14
-42 -19 -48 -43 -48 -27 0 -28 2 -43 86 -11 60 -13 97 -6 120 9 34 74 97 93
91 5 -2 14 -30 18 -63z m1325 47 c74 -38 106 -101 52 -101 -18 0 -20 -6 -20
-54 0 -38 -4 -56 -15 -59 -8 -4 -16 -3 -19 1 -8 13 -86 217 -86 225 0 14 51 7
88 -12z m-9538 -41 c0 -65 -17 -90 -62 -90 -38 0 -38 0 -38 40 0 35 5 43 38
64 52 35 62 33 62 -14z m620 -2 c0 -26 84 -178 101 -183 17 -6 19 -18 19 -114
0 -95 -3 -113 -25 -157 -15 -30 -25 -66 -25 -93 0 -24 -5 -73 -11 -108 l-11
-64 -46 3 c-40 3 -48 7 -56 30 -8 22 -3 41 26 105 87 188 84 350 -7 469 -18
24 -25 45 -25 78 0 44 1 46 30 46 17 0 30 -5 30 -12z m7280 -80 c0 -24 -4 -28
-29 -28 -29 0 -30 1 -24 38 8 54 23 69 39 40 8 -13 13 -35 14 -50z m-6660 44
c0 -5 -5 -34 -11 -65 -8 -40 -18 -61 -35 -72 -21 -14 -24 -13 -33 3 -7 14 -16
110 -12 135 1 10 91 9 91 -1z m468 -28 c23 -8 42 -22 42 -29 0 -8 12 -15 28
-17 40 -4 33 -19 -16 -36 -40 -13 -49 -12 -112 8 -58 19 -69 26 -75 48 -3 15
-8 34 -11 43 -4 14 2 15 48 8 29 -5 72 -16 96 -25z m7561 -21 c-1 -47 -1 -48
-11 -16 -6 18 -8 39 -5 47 11 29 17 17 16 -31z m-7769 20 c-1 -14 -34 -50 -57
-62 -34 -17 -43 -13 -43 19 0 22 6 33 23 40 27 11 77 13 77 3z m2610 -23 c15
-15 20 -33 20 -69 0 -57 -25 -96 -77 -118 -32 -13 -36 -12 -64 12 -17 14 -35
25 -40 25 -12 0 -10 67 4 115 13 42 31 52 100 54 25 1 44 -6 57 -19z m-3042
-77 c27 -26 52 -78 52 -109 0 -11 -19 -14 -75 -14 l-75 0 0 49 c0 101 38 130
98 74z m6574 17 c6 -18 226 -23 303 -7 39 8 71 14 73 12 2 -2 -4 -18 -13 -35
-26 -51 -95 -120 -145 -145 -70 -35 -177 -67 -200 -60 -33 11 -68 66 -80 130
-14 75 -3 115 34 115 13 0 26 -4 28 -10z m1787 -8 c5 -10 11 -31 13 -48 3 -25
-1 -29 -23 -32 -22 -3 -27 2 -32 25 -4 15 -9 38 -13 51 -5 19 -3 22 19 22 15
0 30 -8 36 -18z m471 -32 c0 -27 -4 -50 -10 -50 -5 0 -10 -11 -10 -25 l0 -25
-115 0 c-63 0 -115 1 -115 3 0 1 11 30 23 62 22 55 26 60 53 58 16 -1 36 -11
46 -23 11 -14 28 -20 57 -20 44 0 51 12 31 51 -9 16 -7 19 15 19 23 0 25 -3
25 -50z m-9520 -24 c0 -46 -18 -76 -45 -76 -23 0 -25 3 -25 50 l0 50 35 0 c30
0 35 -3 35 -24z m168 -96 c16 -96 16 -103 -13 -117 -23 -10 -25 -9 -34 25 -6
21 -13 65 -17 100 l-7 62 30 0 c28 0 29 -2 41 -70z m999 40 c23 -46 11 -278
-16 -295 -4 -2 -18 15 -32 38 -31 55 -41 223 -15 249 9 9 16 22 16 28 0 20 34
6 47 -20z m239 7 c75 -26 92 -50 59 -84 -16 -15 -19 -15 -49 1 -43 23 -96 74
-96 92 0 19 4 18 86 -9z m6809 -14 c8 -20 13 -38 11 -40 -2 -2 -28 3 -57 11
-29 9 -68 16 -86 16 -29 0 -33 3 -33 25 0 24 2 25 75 25 l75 0 15 -37z m-323
-28 c-5 -69 -27 -158 -39 -162 -12 -4 -50 100 -55 152 -3 26 1 31 32 42 55 19
65 13 62 -32z m-8828 -47 c7 -36 5 -38 -19 -38 -29 0 -28 -2 -14 57 13 49 22
44 33 -19z m2593 47 c11 -8 44 -46 72 -84 28 -38 58 -72 66 -75 8 -3 15 -16
15 -30 0 -17 10 -30 33 -43 20 -12 44 -42 62 -76 17 -32 35 -57 42 -57 21 0
95 -223 118 -357 37 -210 3 -338 -107 -406 l-47 -29 -84 46 c-46 25 -112 66
-146 91 -40 29 -71 45 -91 45 -16 0 -33 6 -37 13 -4 7 -30 26 -58 42 -27 15
-77 48 -111 71 -33 24 -87 56 -120 72 -32 15 -75 38 -94 50 -19 12 -61 29 -92
38 -32 9 -58 22 -58 29 0 7 -36 21 -86 34 -127 32 -140 41 -180 125 -63 132
-64 240 -4 395 41 105 39 103 95 99 l48 -3 23 -67 c79 -236 219 -368 390 -368
39 0 93 7 120 15 l49 14 52 108 c48 100 52 114 57 198 2 50 7 98 11 108 9 21
33 22 62 2z m-1707 -58 c0 -19 -9 -26 -50 -38 -57 -18 -62 -10 -21 32 36 36
71 39 71 6z m8936 -59 c-4 -28 -13 -63 -21 -77 -23 -41 -73 -97 -81 -89 -4 4
-2 46 4 94 13 97 29 124 75 124 l30 0 -7 -52z m216 -15 c15 -15 36 -52 48 -82
18 -46 19 -56 7 -68 -11 -12 -21 -7 -65 28 l-52 43 0 63 c0 58 2 63 18 54 9
-5 29 -22 44 -38z m-879 1 c22 -5 27 -12 27 -38 0 -39 -25 -76 -51 -76 -24 0
-49 53 -49 101 0 28 3 31 23 25 12 -4 34 -9 50 -12z m-9080 -23 c19 -8 27 -18
27 -36 0 -23 -4 -25 -44 -25 -25 0 -47 4 -50 9 -3 5 -18 12 -33 15 -53 12 -83
28 -83 44 0 13 12 14 78 9 43 -3 90 -11 105 -16z m2307 -21 c0 -47 -15 -52
-51 -14 -24 25 -24 26 -5 40 37 27 56 18 56 -26z m-1340 -35 c0 -45 -12 -60
-24 -29 -12 31 -7 74 9 74 11 0 15 -12 15 -45z m1199 8 c16 -58 14 -91 -8
-103 -28 -14 -28 -15 -41 38 -20 85 27 146 49 65z m-1401 -35 c-2 -17 -11 -24
-30 -26 -24 -3 -28 0 -28 22 0 22 4 26 31 26 26 0 30 -3 27 -22z m4362 -112
c0 -129 -1 -136 -27 -176 -16 -24 -42 -48 -62 -56 -32 -13 -36 -13 -52 3 -16
17 -16 26 7 153 13 74 24 152 24 173 l0 37 55 0 55 0 0 -134z m-4252 89 c18
-40 15 -55 -13 -55 -22 0 -25 4 -25 40 0 47 20 54 38 15z m4627 -50 c20 -77
17 -165 -8 -193 -11 -12 -17 -36 -17 -68 0 -48 -1 -50 -36 -63 -19 -7 -39 -10
-42 -6 -4 4 -8 46 -10 93 -5 114 28 269 60 294 12 9 25 15 29 13 3 -2 14 -34
24 -70z m-5553 31 c47 -20 62 -56 43 -101 -14 -34 -37 -45 -50 -25 -12 20 -42
140 -35 140 4 0 23 -6 42 -14z m10773 -161 c151 -264 221 -470 213 -624 -6
-126 -27 -160 -120 -203 -40 -18 -98 -45 -128 -60 -54 -27 -55 -28 -80 -9 -29
22 -29 -4 -10 606 10 334 20 442 41 429 5 -2 42 -65 84 -139z m-2288 108 c3
-10 30 -57 59 -104 30 -47 54 -91 54 -98 0 -6 -11 -11 -25 -11 -17 0 -29 9
-40 30 -8 16 -42 58 -75 94 -33 35 -60 68 -60 73 0 33 76 47 87 16z m1920
-165 c-5 -184 -71 -777 -87 -788 -4 -3 -9 -14 -11 -25 -4 -17 -15 -21 -80 -26
-42 -4 -81 -9 -87 -13 -6 -4 -61 3 -123 14 -62 11 -116 20 -120 20 -5 0 -24
14 -44 31 l-35 31 0 165 0 166 -35 38 c-19 22 -35 44 -35 49 0 6 -7 10 -15 10
-8 0 -15 7 -15 15 0 19 -31 35 -69 35 -29 0 -31 2 -31 40 0 34 4 42 26 50 40
15 88 12 139 -10 104 -45 203 -13 283 93 76 99 129 153 172 172 28 13 40 24
40 39 0 16 14 28 58 48 31 14 61 26 66 27 5 1 6 -78 3 -181z m-587 123 c0 -12
-47 -61 -60 -61 -5 0 -10 -7 -10 -15 0 -25 -30 -17 -42 11 -11 24 -9 29 15 50
27 23 97 34 97 15z m-9906 -59 c2 -4 7 -24 11 -45 7 -36 7 -37 -24 -37 -26 0
-31 4 -31 23 0 13 -6 29 -12 35 -10 10 -10 15 2 22 18 12 47 13 54 2z m3316
-27 c41 -21 50 -43 50 -127 0 -77 -6 -93 -50 -122 -42 -28 -55 -21 -79 42 -46
119 -48 202 -5 202 13 0 24 5 24 10 0 15 27 12 60 -5z m5178 -25 c35 -22 78
-100 68 -126 -7 -17 -46 -19 -46 -1 0 6 -14 20 -30 29 -32 18 -50 53 -50 94 0
29 15 30 58 4z m981 -16 c2 -2 -8 -17 -21 -35 -22 -27 -63 -45 -304 -135 -154
-58 -313 -115 -354 -128 -70 -21 -76 -22 -92 -6 -21 19 -24 79 -5 84 6 2 50
12 97 23 47 12 148 49 225 83 175 78 264 109 340 119 52 7 102 5 114 -5z m611
-42 c0 -23 -6 -30 -33 -40 -47 -17 -47 -17 -47 28 l0 40 40 0 c37 0 40 -2 40
-28z m-2210 -11 c0 -5 11 -12 24 -15 53 -13 64 -144 27 -308 -16 -68 -27 -98
-37 -98 -8 0 -14 -7 -14 -15 0 -30 -22 -14 -41 30 -27 60 -37 162 -27 272 11
130 15 143 44 143 13 0 24 -4 24 -9z m-6225 -123 c141 -72 263 -159 265 -190
1 -21 -62 -2 -168 51 -64 32 -195 89 -291 127 -95 38 -176 75 -178 81 -3 7 -3
19 0 27 7 18 288 -54 372 -96z m-1962 -200 c4 -57 10 -142 13 -190 l7 -88 -25
0 c-24 0 -25 4 -31 68 -9 85 -9 275 -1 296 3 9 12 16 19 16 8 0 14 -31 18
-102z m1238 37 c53 -31 115 -63 138 -72 22 -9 41 -20 41 -24 0 -19 75 -81 132
-110 34 -17 70 -42 81 -55 10 -13 45 -44 78 -70 49 -37 59 -50 59 -75 0 -17
-6 -37 -14 -44 -12 -12 -20 -10 -55 15 -22 17 -51 45 -63 64 -14 21 -36 38
-58 45 -19 6 -62 34 -95 62 -33 29 -78 64 -100 78 -22 14 -62 42 -90 62 -27
20 -87 55 -132 78 -81 40 -83 42 -83 77 0 36 1 36 32 30 18 -3 76 -31 129 -61z
m8774 46 c28 -17 75 -74 75 -92 0 -14 -84 -10 -103 4 -9 6 -27 33 -40 60 l-24
47 31 -1 c17 0 45 -8 61 -18z m-5666 -68 c6 -21 11 -55 11 -75 0 -38 0 -38
-40 -38 -37 0 -40 2 -51 39 -15 49 -6 84 23 99 38 18 47 14 57 -25z m5313 -38
c9 -38 25 -134 36 -212 l18 -143 -117 0 -116 0 -12 57 c-14 70 -14 186 0 236
19 69 101 140 154 134 16 -2 23 -16 37 -72z m176 -33 c-5 -126 -22 -175 -33
-98 -13 82 7 206 32 206 3 0 4 -48 1 -108z m-4006 82 c198 -27 408 -84 408
-109 0 -9 10 -15 24 -15 20 0 35 -20 101 -136 73 -131 77 -139 86 -227 18
-165 36 -197 110 -197 57 0 178 45 186 69 13 36 47 73 86 93 35 19 58 23 147
23 146 0 263 -20 276 -48 5 -11 34 -34 65 -51 47 -25 61 -40 88 -91 69 -128
185 -245 279 -282 43 -16 172 -131 172 -153 0 -5 6 -10 13 -10 7 0 21 -35 34
-84 12 -46 45 -135 74 -197 47 -103 53 -122 57 -196 3 -74 1 -86 -22 -126 -14
-24 -26 -53 -26 -65 0 -16 -6 -22 -23 -22 -19 0 -26 -8 -36 -42 -10 -34 -37
-66 -127 -153 -70 -67 -114 -118 -114 -130 0 -11 -18 -37 -39 -58 -22 -21 -48
-58 -57 -83 -13 -35 -22 -44 -40 -44 -19 0 -24 -5 -24 -25 0 -14 -5 -25 -11
-25 -8 0 -9 -66 -4 -232 9 -289 1 -355 -64 -547 -28 -80 -55 -165 -61 -188 -6
-24 -15 -43 -20 -43 -14 0 -42 -59 -119 -253 -38 -96 -76 -188 -84 -203 -19
-36 -82 -407 -98 -574 -21 -227 8 -551 61 -665 17 -36 55 -78 205 -223 28 -27
60 -59 72 -73 12 -13 42 -43 67 -67 56 -53 132 -200 149 -289 10 -54 15 -62
35 -65 21 -3 30 -20 74 -138 36 -96 51 -155 55 -205 7 -92 -13 -364 -33 -462
-23 -112 -63 -233 -79 -239 -8 -3 -21 -28 -30 -55 -13 -38 -21 -49 -38 -49
-23 -1 -77 -62 -77 -87 0 -7 -10 -13 -22 -13 -12 0 -35 -16 -55 -39 -18 -22
-60 -56 -92 -75 -51 -31 -61 -43 -79 -91 -32 -84 -77 -142 -133 -173 -36 -20
-49 -33 -49 -49 0 -17 -8 -24 -27 -28 -16 -4 -46 -10 -68 -16 -62 -14 -397
-27 -1000 -39 -791 -14 -1449 -31 -1605 -39 -109 -6 -160 -4 -264 11 -156 23
-224 47 -278 99 -23 21 -45 39 -49 39 -4 0 -15 22 -24 49 -21 65 -83 134 -140
157 -25 11 -45 25 -45 32 0 6 -11 12 -25 12 -14 0 -25 6 -25 13 -1 6 -23 29
-50 50 -35 27 -50 46 -50 62 0 13 -10 29 -26 39 -62 41 -121 187 -165 411 -21
104 -21 119 -10 275 15 223 47 363 123 548 19 45 25 52 50 52 23 0 28 4 28 25
0 20 5 25 24 25 19 0 25 6 29 33 40 227 37 217 68 217 25 0 29 4 29 29 0 21 6
32 21 36 11 4 41 38 65 76 59 91 72 102 161 134 41 15 88 39 104 52 28 24 29
28 24 87 -3 33 -15 183 -26 331 -20 267 -37 449 -60 638 -12 97 -13 99 -126
310 -146 270 -204 393 -241 503 -53 158 -55 183 -47 490 7 291 1 434 -19 434
-6 0 -36 34 -66 75 -37 51 -62 75 -75 75 -16 0 -30 19 -60 80 -33 69 -43 80
-65 80 -23 0 -33 18 -112 180 l-88 179 0 125 c0 111 2 124 18 128 13 4 38 52
82 154 105 248 152 316 245 355 44 18 55 27 55 46 0 13 6 23 14 23 23 0 71 46
106 100 18 28 46 58 61 66 16 8 29 21 29 28 0 13 83 69 201 135 l56 31 157 0
c154 0 159 -1 188 -25 16 -14 40 -25 52 -25 15 0 32 -15 56 -52 46 -69 86 -90
164 -85 34 2 62 9 64 15 2 7 15 12 28 12 13 0 24 6 24 13 0 6 9 74 20 149 24
160 53 262 84 293 53 53 367 151 576 179 146 19 423 20 562 0z m1526 10 c42
-12 22 -103 -30 -142 -10 -7 -18 -20 -18 -28 0 -11 -16 -14 -69 -14 -68 0 -69
0 -80 31 -6 18 -11 47 -11 65 0 27 6 36 32 50 76 39 128 50 176 38z m-7028
-29 c0 -30 -25 -34 -40 -6 -14 28 -13 31 15 31 20 0 25 -5 25 -25z m95 -107
c35 -75 31 -156 -5 -113 -7 8 -21 15 -31 15 -16 0 -19 8 -19 48 0 26 -4 54
-10 62 -10 17 5 40 27 40 8 0 25 -24 38 -52z m-145 -23 c0 -21 -5 -25 -30 -25
-25 0 -30 4 -30 25 0 21 5 25 30 25 25 0 30 -4 30 -25z m9849 -25 c16 0 21 -6
21 -25 0 -21 -5 -25 -28 -25 -34 0 -52 16 -52 47 0 20 3 22 19 13 11 -5 29
-10 40 -10z m-139 -46 c0 -7 14 -24 30 -37 17 -14 30 -35 30 -47 0 -19 -5 -21
-57 -18 l-58 3 -3 40 c-2 25 3 53 14 73 17 31 19 32 31 16 7 -10 13 -23 13
-30z m-1270 -86 c83 -83 83 -83 111 -182 47 -161 35 -251 -37 -281 -20 -8 -38
-15 -40 -15 -8 0 -63 120 -85 185 -12 39 -40 95 -61 126 -21 31 -45 76 -53 99
-15 43 -20 131 -8 143 3 4 25 7 48 7 40 0 48 -5 125 -82z m-6033 10 c6 -29 13
-61 18 -70 6 -15 2 -18 -18 -18 -20 0 -34 13 -66 61 -23 34 -38 65 -35 70 3 5
24 9 48 9 l43 0 10 -52z m-2779 -55 c10 -16 24 -43 30 -62 16 -45 14 -177 -3
-221 -7 -19 -14 -27 -14 -17 -1 9 -5 17 -10 17 -5 0 -23 12 -40 26 -36 30 -65
113 -76 217 l-7 67 50 0 c44 0 53 -4 70 -27z m572 2 c0 -14 -7 -28 -16 -32
-24 -9 -64 14 -64 37 0 17 7 20 40 20 36 0 40 -2 40 -25z m330 3 c0 -13 5 -30
10 -38 7 -11 3 -18 -13 -27 -12 -7 -27 -12 -34 -13 -11 0 -63 45 -63 56 0 9
65 44 83 44 11 0 17 -8 17 -22z m-560 -99 c0 -11 5 -29 10 -40 10 -17 7 -19
-25 -19 -34 0 -35 1 -35 40 0 36 3 40 25 40 19 0 25 -5 25 -21z m388 -6 c6
-16 14 -44 17 -64 6 -34 5 -36 -34 -51 -39 -16 -42 -15 -51 2 -13 24 -13 96 0
121 16 29 55 24 68 -8z m347 -15 c46 -21 29 -35 -62 -52 -47 -9 -88 -14 -90
-13 -2 2 4 20 12 40 15 36 17 37 65 37 27 0 61 -5 75 -12z m245 -38 c48 -12
81 -27 93 -41 10 -12 34 -25 55 -28 35 -6 38 -10 55 -61 36 -111 67 -297 78
-470 l12 -175 -60 -150 c-150 -374 -171 -511 -112 -733 32 -123 41 -233 26
-324 -7 -42 -11 -48 -33 -48 -19 0 -24 -5 -24 -25 0 -15 -6 -25 -15 -25 -8 0
-19 -17 -25 -42 -30 -115 -45 -162 -92 -272 l-49 -119 4 -196 c3 -136 9 -222
22 -281 12 -59 18 -129 18 -230 0 -129 -3 -155 -27 -234 -15 -50 -43 -121 -61
-160 -41 -82 -46 -136 -14 -136 50 0 81 32 120 124 14 34 32 61 40 61 24 0 58
-85 70 -175 14 -100 7 -336 -15 -520 -8 -69 -22 -225 -31 -348 -9 -123 -23
-266 -31 -319 -8 -53 -14 -102 -14 -109 0 -7 -24 -17 -57 -24 -106 -21 -154
-41 -195 -82 -52 -52 -72 -58 -188 -58 l-99 0 -5 33 c-3 17 -10 343 -15 722
l-9 690 -37 220 -37 220 23 190 c12 105 22 199 21 210 0 11 -4 89 -9 173 -4
84 -5 224 -1 310 15 346 14 412 -7 482 -30 97 -28 362 3 516 27 135 21 179
-38 276 -35 59 -39 74 -55 201 -10 76 -16 139 -14 142 2 2 23 -1 46 -8 78 -20
118 32 130 168 l6 75 36 0 c33 0 38 -4 46 -32 6 -17 21 -40 35 -50 53 -38 189
-46 308 -16 35 9 48 19 69 52 13 22 33 53 44 68 36 52 20 335 -26 436 -13 29
-31 55 -40 58 -15 6 -23 84 -7 84 4 0 41 -9 82 -20z m-1110 -90 c0 -57 -1 -60
-25 -60 -24 0 -25 3 -25 60 0 57 1 60 25 60 24 0 25 -3 25 -60z m2010 47 c0
-8 15 -22 34 -32 19 -11 37 -27 39 -37 4 -13 15 -18 40 -18 28 0 37 -5 42 -22
4 -13 31 -48 60 -78 65 -69 85 -98 85 -127 0 -20 -5 -23 -40 -23 -32 0 -53 9
-98 42 -97 71 -154 121 -184 162 -15 22 -38 44 -50 50 -11 6 -30 23 -41 38
-17 22 -18 30 -7 43 16 20 120 22 120 2z m8071 -8 c201 -41 329 -102 362 -172
23 -47 21 -57 -7 -57 -12 0 -37 -5 -53 -11 -27 -9 -38 -6 -98 27 -37 21 -134
60 -214 88 -125 44 -146 54 -149 74 -2 13 3 25 12 28 9 3 16 15 16 25 0 24 9
24 131 -2z m1109 10 c0 -70 -74 -165 -161 -210 l-59 -29 0 27 c0 34 45 133 60
133 6 0 36 20 68 45 55 44 92 57 92 34z m-10550 -33 c0 -14 -11 -33 -25 -44
-14 -11 -25 -29 -25 -41 0 -12 -6 -21 -15 -21 -11 0 -15 11 -15 39 0 32 6 44
31 65 38 32 49 33 49 2z m7275 3 c25 -12 54 -34 65 -49 l20 -29 -22 -15 c-12
-9 -30 -16 -40 -16 -13 0 -18 -8 -18 -25 0 -15 6 -25 15 -25 19 0 35 -31 35
-69 l0 -31 -89 0 c-81 0 -89 2 -94 21 -3 11 -15 23 -26 26 -23 6 -23 7 1 132
11 62 44 101 83 101 14 0 45 -10 70 -21z m3432 1 c18 -10 40 -31 49 -46 19
-28 56 -179 46 -188 -31 -32 -127 94 -142 187 -11 74 -6 80 47 47z m-1782 -32
c59 -11 103 -25 108 -34 4 -8 17 -14 27 -14 27 0 27 -59 1 -91 l-19 -24 -49
18 c-26 10 -72 27 -102 38 -30 11 -85 23 -123 26 l-68 6 0 47 c0 26 2 49 5 52
9 8 116 -3 220 -24z m-9919 -13 c4 -8 17 -15 30 -15 13 0 24 -6 24 -13 0 -7
16 -28 35 -47 34 -33 35 -36 35 -112 0 -75 -1 -78 -23 -78 -19 0 -26 8 -36 40
-7 23 -33 62 -66 97 -44 45 -55 64 -55 90 0 42 43 72 56 38z m1344 -90 c0 -55
0 -55 -31 -55 -36 0 -119 46 -119 66 0 7 10 16 23 19 64 15 103 23 115 24 8 1
12 -16 12 -54z m-669 18 c17 -17 -3 -39 -64 -70 l-49 -24 -23 21 c-29 27 -41
70 -23 82 18 12 145 5 159 -9z m419 -103 l0 -40 -67 0 c-52 0 -64 3 -55 12 7
7 12 22 12 33 0 31 7 35 62 35 l48 0 0 -40z m-320 -9 c26 -49 -6 -81 -81 -81
-23 0 -29 4 -29 23 0 31 13 48 47 63 40 18 51 17 63 -5z m10720 -74 c0 -58 -2
-65 -25 -75 -13 -6 -46 -38 -71 -71 -26 -33 -50 -58 -55 -56 -7 5 -14 39 -24
136 l-6 56 38 7 c21 3 61 19 88 35 28 17 51 30 53 30 1 1 2 -28 2 -62z
m-11459 1 c6 -24 13 -46 16 -51 7 -11 -61 -37 -97 -37 -34 0 -33 -2 -19 60 11
49 30 70 66 70 18 0 24 -8 34 -42z m269 -8 c0 -48 -1 -50 -28 -50 -38 0 -60
40 -34 63 15 12 52 36 60 37 1 0 2 -22 2 -50z m1026 29 c20 -16 17 -59 -7 -98
-25 -42 -34 -34 -58 53 l-19 68 35 -5 c19 -3 41 -11 49 -18z m10387 -22 c28
-9 37 -16 37 -33 0 -12 5 -24 11 -26 7 -2 6 -18 -2 -51 -12 -42 -16 -47 -41
-47 -23 0 -28 4 -28 25 0 20 -5 25 -25 25 -20 0 -25 5 -25 25 0 14 -4 25 -10
25 -5 0 -10 11 -10 24 0 14 -4 36 -10 50 l-10 26 38 -16 c20 -9 54 -21 75 -27z
m-11263 -104 c0 -2 -12 -3 -26 -3 -19 0 -24 4 -20 18 3 9 8 35 12 57 l7 40 13
-55 c7 -30 13 -56 14 -57z m1750 87 c94 -15 196 -68 259 -135 36 -38 60 -55
77 -55 21 0 30 -10 54 -62 77 -165 85 -350 32 -731 -35 -252 -39 -348 -17
-404 8 -21 63 -177 124 -348 107 -305 109 -312 115 -420 3 -60 13 -137 21
-170 65 -241 81 -341 95 -571 17 -282 -18 -826 -66 -1024 -49 -200 -76 -251
-154 -294 -30 -16 -50 -34 -50 -44 0 -12 -20 -23 -73 -38 -39 -11 -80 -24 -89
-29 -13 -5 -18 -3 -18 9 0 11 -9 16 -28 16 -26 0 -30 5 -40 48 -38 149 -74
326 -96 462 -27 163 -90 711 -100 865 -3 50 -15 232 -26 406 -16 259 -23 322
-39 355 -10 21 -31 82 -46 134 -15 52 -47 142 -70 200 -24 58 -48 124 -54 146
-7 28 -18 43 -31 47 -11 3 -23 13 -27 24 -3 10 -14 28 -24 41 -19 24 -43 94
-53 150 -5 32 -4 33 74 72 46 23 80 47 80 55 0 9 10 15 25 15 21 0 29 9 45 45
26 60 42 157 35 203 -17 104 -29 144 -47 153 -10 5 -34 41 -53 78 -18 38 -41
71 -49 74 -23 9 -40 113 -39 242 0 97 8 155 37 300 21 98 40 183 42 187 7 11
96 10 174 -2z m8312 -4 c77 -14 189 -58 209 -82 15 -19 -5 -52 -38 -60 -34 -9
-126 6 -296 46 l-137 33 0 39 0 38 93 0 c50 -1 126 -7 169 -14z m-9434 -29 c8
-10 8 -24 1 -53 -6 -21 -12 -40 -14 -42 -2 -2 -15 9 -29 23 -16 16 -26 37 -26
55 0 26 4 30 29 30 16 0 33 -6 39 -13z m-268 -32 c0 -22 -4 -25 -36 -25 -41 0
-69 21 -51 39 6 6 28 11 49 11 34 0 38 -3 38 -25z m-580 -80 l0 -75 -28 0
c-36 0 -52 31 -52 100 l0 50 40 0 40 0 0 -75z m2847 67 c20 -13 34 -62 40
-144 l6 -78 -31 0 c-17 0 -34 -4 -37 -10 -12 -20 -45 -9 -68 23 -32 43 -47 90
-47 148 0 48 0 48 38 54 20 4 42 8 47 10 18 6 40 5 52 -3z m-2477 -214 c0 -5
-16 -8 -35 -8 -40 0 -43 10 -24 86 l12 45 23 -58 c13 -32 24 -61 24 -65z
m11027 100 c43 -47 36 -113 -10 -106 -33 5 -51 50 -37 93 14 41 20 43 47 13z
m-11747 -111 c6 -45 14 -89 16 -98 5 -17 -60 -54 -77 -44 -10 7 -12 175 -3
223 6 30 7 30 29 16 18 -12 25 -30 35 -97z m11610 58 l0 -55 -35 0 c-32 0 -35
2 -35 30 0 17 5 30 10 30 6 0 10 11 10 25 0 20 5 25 25 25 24 0 25 -3 25 -55z
m-11390 -4 c0 -4 16 -28 35 -52 29 -37 35 -52 35 -93 0 -57 -1 -57 -88 6 l-61
43 0 53 -1 52 40 0 c22 0 40 -4 40 -9z m9008 -23 c-2 -25 -12 -39 -40 -57 -26
-17 -38 -32 -38 -48 0 -17 -6 -23 -23 -23 -13 0 -47 -11 -75 -25 -42 -20 -52
-30 -52 -50 0 -16 -6 -25 -16 -25 -9 0 -43 -12 -75 -27 -47 -22 -59 -32 -59
-50 0 -15 -6 -23 -16 -23 -14 0 -16 9 -12 63 6 72 26 110 69 129 21 9 37 29
53 65 37 79 81 100 214 102 l73 1 -3 -32z m868 -125 c4 -14 4 -107 1 -206 l-6
-179 -36 -63 c-88 -158 -124 -297 -106 -413 16 -101 49 -201 75 -226 13 -11
26 -31 30 -43 10 -32 70 -81 113 -92 58 -16 153 -25 153 -15 0 5 23 47 51 94
l51 85 -6 120 c-3 66 -9 139 -12 163 l-7 42 101 0 c95 0 101 1 116 24 8 14 26
26 38 28 19 2 24 12 31 53 23 147 -20 286 -116 370 -48 43 -222 136 -309 166
-35 12 -38 16 -38 51 l0 38 118 0 c104 0 140 -5 312 -45 107 -25 219 -52 248
-60 l52 -16 0 -62 c0 -72 -18 -186 -61 -400 -37 -178 -38 -229 -8 -444 28
-198 30 -382 6 -473 -21 -78 -66 -176 -106 -233 -25 -34 -37 -72 -65 -207 -81
-384 -116 -654 -116 -892 0 -184 17 -348 38 -355 24 -10 32 18 32 116 0 74 5
110 25 166 35 103 53 230 65 475 l11 215 52 132 c29 73 58 133 64 133 31 0 79
-187 95 -363 8 -97 8 -172 -2 -310 -6 -100 -16 -378 -20 -617 -7 -398 -13
-500 -54 -968 -3 -32 -13 -62 -25 -78 -23 -29 -36 -72 -46 -150 l-6 -51 -187
-6 c-103 -4 -208 -10 -234 -13 l-46 -6 -80 78 c-91 90 -112 138 -112 251 0 48
-6 76 -25 112 -14 29 -27 76 -31 117 -6 57 -19 93 -79 214 -97 196 -141 308
-161 415 -18 95 -39 140 -89 191 -65 65 -155 251 -180 372 -26 122 -17 230 41
490 19 84 34 171 34 193 0 22 -9 115 -21 207 -15 120 -20 203 -17 294 4 115 7
132 34 185 37 74 81 105 143 101 l44 -3 29 -109 c33 -127 72 -204 115 -225
l30 -16 6 -260 c7 -280 15 -379 49 -578 13 -80 25 -126 32 -124 6 2 29 109 52
238 35 203 47 251 87 350 120 297 100 445 -73 528 -64 31 -113 94 -124 160 -3
23 -11 41 -16 41 -10 0 -134 242 -175 342 -13 32 -33 72 -45 88 -19 26 -21 39
-15 78 9 62 46 159 94 246 22 39 52 107 66 151 36 108 33 208 -10 273 -16 23
-35 42 -42 42 -7 0 -13 5 -13 11 0 12 -183 7 -262 -7 -61 -11 -48 19 20 49 86
39 122 45 279 46 l143 1 6 -27z m1824 -25 c0 -42 -21 -98 -35 -98 -8 0 -33
-35 -54 -77 l-40 -78 -1 48 c0 83 19 137 66 184 49 48 64 53 64 21z m150 -13
c0 -37 -23 -50 -33 -17 -2 9 -8 25 -12 35 -6 14 -2 17 19 17 23 0 26 -4 26
-35z m-530 -31 c0 -29 -21 -54 -45 -54 -29 0 -28 -2 -14 39 8 23 17 31 35 31
15 0 24 -6 24 -16z m120 -18 c0 -8 -11 -28 -25 -43 l-24 -28 -1 43 c0 38 2 42
25 42 15 0 25 -6 25 -14z m-11375 -44 c44 -13 60 -22 59 -35 -3 -68 -5 -84
-14 -97 -9 -13 -11 -13 -20 0 -5 8 -31 38 -58 66 -52 55 -74 99 -44 90 9 -3
44 -14 77 -24z m-224 -49 c-6 -21 -24 -52 -41 -68 l-30 -29 0 60 c0 58 1 61
33 76 41 20 51 10 38 -39z m9399 -83 c16 -51 21 -92 21 -192 0 -112 -3 -136
-25 -198 -44 -122 -34 -221 39 -364 29 -58 35 -80 35 -134 0 -91 -24 -245 -76
-478 l-44 -202 0 -506 0 -506 -32 0 c-92 0 -147 -41 -155 -114 -7 -56 23 -186
43 -186 7 0 23 -19 35 -42 31 -61 61 -99 84 -108 19 -7 22 -24 38 -221 20
-246 22 -346 6 -421 -14 -66 -24 -78 -63 -78 -17 0 -38 -4 -46 -9 -10 -7 -18
-4 -26 8 -7 9 -31 26 -53 36 -39 17 -43 23 -66 97 -14 43 -25 89 -25 102 0 19
-30 41 -166 126 -118 74 -169 111 -176 129 -12 35 -74 97 -109 112 -26 10 -29
16 -29 58 0 86 -20 221 -41 276 -11 31 -37 77 -57 103 -34 44 -39 60 -73 237
-31 162 -37 218 -42 379 -9 287 11 460 63 568 12 25 26 91 36 167 20 158 38
240 65 294 12 23 28 73 35 111 7 37 34 118 60 180 86 208 124 315 130 363 3
27 15 80 26 120 l21 72 51 17 c83 27 188 84 231 125 71 68 136 123 184 155
l46 32 17 -21 c10 -12 27 -51 38 -87z m2514 5 c-1 -45 -10 -83 -38 -150 -21
-49 -46 -99 -56 -109 -18 -19 -19 -19 -26 8 -10 42 1 121 31 216 29 89 38 102
70 98 18 -3 20 -10 19 -63z m-1768 -13 c-15 -15 -16 -15 -16 2 0 9 6 27 12 39
l13 22 3 -24 c2 -13 -3 -31 -12 -39z m-6916 -67 l0 -115 -30 0 -30 0 0 84 c0
118 7 146 36 146 24 0 24 -1 24 -115z m10009 68 c14 -30 14 -113 1 -113 -15 0
-60 99 -60 132 0 25 2 27 24 17 13 -6 29 -22 35 -36z m-1959 -38 c0 -40 -3
-47 -27 -56 -43 -16 -126 -24 -122 -11 5 12 130 112 142 112 4 0 7 -20 7 -45z
m2177 19 c10 -26 -15 -178 -32 -190 -8 -6 -15 -21 -15 -33 0 -12 -6 -21 -15
-21 -13 0 -15 21 -15 130 l0 130 35 0 c23 0 38 -6 42 -16z m-1940 -41 c14 -11
15 -29 10 -125 -9 -150 -15 -173 -52 -173 -26 0 -30 6 -63 90 -40 106 -54 205
-28 205 9 0 16 7 16 15 0 10 10 15 33 15 17 0 39 5 47 10 11 7 16 5 18 -8 2
-9 11 -23 19 -29z m-11474 -10 c2 -5 7 -20 11 -35 5 -23 3 -28 -13 -28 -12 0
-23 11 -30 31 -6 18 -11 34 -11 35 0 7 39 4 43 -3z m171 1 c23 -9 19 -47 -7
-72 l-24 -22 -11 25 c-19 41 -15 75 7 75 11 0 26 -3 35 -6z m2706 -274 l0
-280 -50 0 -49 0 -18 58 c-26 86 -21 220 14 362 26 105 31 115 53 118 14 2 29
8 35 13 5 5 10 9 12 9 2 0 3 -126 3 -280z m7360 211 c0 -41 -4 -51 -25 -65
l-25 -16 0 65 c0 63 1 65 25 65 23 0 25 -3 25 -49z m1715 -65 c-24 -97 -32
-116 -50 -116 -18 0 -18 -5 0 105 12 68 21 94 38 109 22 18 22 18 25 -5 2 -12
-4 -54 -13 -93z m1172 47 c20 -49 28 -116 16 -138 -8 -14 -15 -8 -42 40 -58
102 -61 135 -14 135 18 0 28 -9 40 -37z m-12773 -36 c21 -87 11 -439 -16 -527
-6 -19 -35 -86 -64 -149 l-54 -114 0 -136 c0 -183 -17 -364 -39 -431 -43 -125
-46 -164 -43 -460 2 -186 -1 -317 -9 -377 l-13 -93 -38 0 -39 0 5 -42 c4 -24
11 -82 16 -130 15 -128 142 -460 197 -515 21 -21 44 -56 51 -78 7 -26 20 -44
37 -52 14 -6 25 -10 25 -8 0 2 -16 117 -36 256 -19 140 -35 265 -35 279 15
872 20 956 70 1090 11 30 20 63 21 73 0 13 9 17 44 17 l44 0 21 -80 c24 -88
42 -268 36 -351 -3 -30 -12 -139 -21 -244 -14 -166 -14 -203 -2 -295 13 -95
13 -118 -4 -245 -35 -267 -25 -490 25 -580 23 -41 35 -49 54 -37 30 19 39 528
17 986 -4 72 0 194 10 310 26 326 27 358 17 452 -7 68 -17 107 -39 151 -35 69
-58 146 -67 224 -7 58 9 197 25 213 11 11 92 -1 114 -17 32 -24 38 -121 41
-707 3 -525 5 -587 24 -713 25 -167 26 -240 5 -513 -17 -216 -14 -442 7 -539
18 -87 16 -265 -4 -305 -18 -37 -70 -76 -87 -65 -5 3 -24 26 -40 51 -17 24
-38 44 -46 44 -8 0 -22 17 -30 38 -25 59 -138 283 -224 442 -97 179 -134 266
-211 489 -137 402 -189 603 -249 976 -66 408 -90 725 -90 1195 0 289 -2 342
-16 369 -17 34 -14 79 9 128 9 20 16 24 40 19 33 -7 85 -31 177 -82 59 -32 71
-35 124 -32 50 4 62 8 79 33 23 32 133 105 158 105 9 0 19 -10 23 -23z m10113
-30 c35 -23 46 -67 18 -67 -8 0 -15 4 -15 9 0 5 -16 24 -35 42 -58 55 -39 64
32 16z m-8475 -44 c27 -60 38 -201 17 -206 -82 -23 -106 -25 -158 -11 -30 7
-56 16 -59 18 -11 11 20 133 42 166 23 34 94 80 124 80 7 0 23 -21 34 -47z
m8332 -3 c21 -39 33 -50 52 -50 19 0 24 -5 24 -25 0 -23 -4 -25 -46 -25 -74 0
-84 10 -84 85 0 81 16 85 54 15z m850 28 c-12 -39 -37 -67 -76 -85 -21 -10
-38 -23 -38 -29 0 -10 -70 -46 -77 -40 -1 1 33 135 42 164 3 8 28 12 80 12 75
0 76 -1 69 -22z m448 -73 c24 -53 176 -121 329 -147 l67 -12 6 -90 c8 -109 -8
-471 -29 -686 -29 -285 -78 -579 -151 -907 -37 -167 -67 -266 -173 -565 -71
-200 -134 -383 -141 -408 -6 -25 -19 -50 -27 -57 -9 -7 -28 -41 -43 -76 -15
-36 -77 -152 -138 -258 -61 -107 -123 -224 -138 -261 -15 -37 -35 -70 -44 -73
-38 -12 -102 -93 -167 -212 -37 -69 -86 -146 -108 -171 -38 -42 -42 -44 -63
-31 -13 8 -21 20 -18 29 3 8 20 58 39 110 65 180 167 774 171 990 0 52 -8 169
-18 260 l-20 166 34 179 34 180 1 405 c0 416 2 440 45 599 10 40 12 41 53 41
48 0 124 -32 133 -55 3 -8 17 -15 30 -15 13 0 24 -5 24 -10 0 -6 11 -15 25
-22 52 -23 149 -193 291 -508 118 -262 133 -282 171 -223 41 63 15 217 -79
466 -48 126 -55 137 -78 137 -23 0 -27 7 -45 68 -10 37 -49 128 -87 203 -67
134 -68 136 -120 160 -138 64 -226 176 -252 321 -7 37 -6 37 36 49 58 15 129
52 216 112 60 42 72 54 72 78 0 23 5 28 27 31 23 3 29 12 50 72 12 39 23 86
23 106 0 20 3 40 7 43 15 15 44 5 55 -18z m-288 -79 c56 -73 64 -93 39 -111
-31 -24 -41 -17 -61 48 -20 62 -36 134 -28 126 2 -2 25 -31 50 -63z m-1133
-123 c33 -100 6 -108 -76 -24 -39 41 -39 41 -13 41 14 0 32 7 39 16 11 14 9
19 -11 35 -14 10 -29 19 -34 19 -5 0 -3 7 4 15 21 25 65 -26 91 -102z m2939
17 c-1 -70 -2 -73 -15 -50 -8 14 -14 37 -15 53 0 15 -4 27 -10 27 -5 0 -10 15
-10 34 0 33 1 34 25 23 23 -11 25 -17 25 -87z m-4727 48 l31 -33 0 -180 c1
-202 -11 -259 -63 -309 -26 -25 -31 -26 -50 -14 -18 11 -21 22 -21 78 1 184
40 490 62 490 5 0 24 -15 41 -32z m1572 15 c-4 -10 -11 -34 -15 -53 -7 -35 -7
-35 -17 -10 -13 31 2 80 24 80 11 0 13 -5 8 -17z m3393 -105 c-30 -75 -36 -83
-62 -86 -29 -4 -29 -3 -24 41 7 62 37 118 78 145 34 23 35 23 38 3 2 -11 -12
-57 -30 -103z m-2259 12 c-7 -50 -15 -89 -18 -87 -65 34 -71 41 -71 95 0 43 3
52 18 52 9 0 31 8 47 19 17 10 32 17 34 15 2 -2 -2 -44 -10 -94z m-1080 -232
c1 -12 -7 -18 -23 -18 -20 0 -24 6 -30 46 -4 33 -1 54 11 77 l16 32 13 -60 c7
-33 13 -68 13 -77z m162 72 c28 -15 23 -80 -6 -80 -10 0 -45 66 -45 85 0 9 31
5 51 -5z m2921 -38 c15 -15 38 -98 38 -138 0 -9 -12 -14 -35 -14 -30 0 -35 3
-35 24 0 19 -6 25 -27 28 -26 3 -28 7 -31 52 -5 69 2 80 41 72 17 -4 40 -14
49 -24z m318 -7 c0 -42 -18 -81 -52 -111 -26 -25 -88 -58 -94 -51 -8 7 27 100
49 130 18 27 72 67 90 67 4 0 7 -16 7 -35z m-10500 -40 c10 -26 40 -189 40
-217 0 -15 -9 -18 -49 -18 -46 0 -50 2 -65 34 -20 42 -36 124 -36 182 l0 44
50 0 c44 0 52 -3 60 -25z m7181 -45 c27 -15 24 -30 -6 -30 -18 0 -25 5 -25 20
0 23 4 24 31 10z m-6851 -390 l0 -330 -40 0 c-47 0 -45 -4 -60 149 -17 179
-10 428 15 499 3 7 21 12 45 12 l40 0 0 -330z m9797 233 l43 -6 0 -77 c0 -52
-4 -81 -13 -89 -21 -17 -63 35 -83 104 -9 33 -19 66 -22 74 -4 11 -1 13 13 7
11 -4 38 -10 62 -13z m377 -100 c-35 -93 -39 -98 -97 -144 -51 -41 -51 -41
-68 -20 -45 55 -25 147 40 185 43 25 100 45 128 46 l22 0 -25 -67z m-11525
-159 c44 -9 80 -48 120 -130 29 -58 39 -100 67 -274 46 -293 63 -431 76 -632
20 -300 -13 -585 -90 -778 -25 -64 -142 -421 -142 -435 0 -3 -6 -5 -14 -5 -9
0 -18 -22 -26 -67 -20 -118 -40 -276 -40 -329 0 -76 -12 -87 -122 -101 -148
-19 -138 -22 -138 45 0 102 69 324 136 439 24 41 24 43 24 318 l0 276 -55 282
c-119 620 -126 663 -132 894 -6 232 2 304 42 383 23 45 62 88 100 108 22 12
144 16 194 6z m11106 -44 c9 -27 21 -50 26 -50 5 0 9 -29 9 -65 0 -70 -7 -78
-48 -50 -32 23 -69 93 -77 147 -8 59 -3 68 40 68 31 0 34 -3 50 -50z m-4724
-12 c16 -38 15 -45 -21 -338 -16 -129 -32 -287 -36 -350 -4 -63 -11 -121 -17
-127 -5 -7 -22 -13 -38 -13 -26 0 -33 8 -66 75 l-37 74 12 97 c16 126 48 279
79 379 42 134 84 235 98 235 7 0 18 -14 26 -32z m-266 -160 c-4 -35 -20 -139
-35 -233 -16 -93 -32 -204 -35 -245 -4 -41 -15 -106 -25 -145 -26 -95 -47
-223 -55 -322 l-7 -83 -60 0 -61 0 6 278 c3 152 10 320 17 372 14 122 56 332
75 376 18 43 60 63 133 64 l53 0 -6 -62z m5380 -20 c-12 -69 -41 -118 -70
-118 -32 0 -31 13 6 85 46 87 75 102 64 33z m-441 -135 c2 -10 7 -33 11 -50 6
-31 5 -33 -23 -33 -31 0 -52 30 -52 75 0 21 5 25 29 25 20 0 31 -6 35 -17z
m-9680 -49 c4 -10 9 -49 13 -88 8 -100 -19 -148 -94 -171 l-23 -6 0 130 c0
123 1 131 19 131 11 0 23 5 26 10 10 16 52 11 59 -6z m9976 -138 c0 -41 -2
-45 -27 -48 -22 -2 -29 -9 -31 -30 -3 -29 -41 -48 -95 -48 -28 0 -29 1 -24 36
8 47 32 82 65 96 15 5 41 16 57 23 49 22 55 19 55 -29z m-10181 -98 c35 -37
39 -132 10 -240 -21 -79 -53 -27 -80 129 -19 108 18 167 70 111z m9828 -114
c41 -76 51 -114 30 -114 -9 0 -27 29 -47 76 -46 111 -45 107 -29 102 8 -2 28
-31 46 -64z m-9644 32 l47 -19 0 -101 c0 -55 -5 -231 -11 -391 -5 -159 -13
-456 -17 -660 l-8 -370 -26 -57 c-27 -58 -62 -83 -79 -57 -12 20 -11 225 6
789 22 753 27 891 34 888 3 -2 27 -11 54 -22z m9987 -79 c0 -8 -11 -24 -25
-37 -31 -29 -114 -40 -133 -17 -10 12 -8 18 15 32 48 32 143 46 143 22z
m-9311 -331 c15 -32 30 -185 31 -318 0 -87 -57 -532 -86 -665 -15 -70 -17 -73
-44 -73 -34 0 -36 5 -50 129 -11 100 -3 276 20 476 5 44 14 141 21 215 9 115
33 225 56 263 10 16 38 1 52 -27z m8411 -56 c0 -5 9 -19 20 -30 13 -13 24 -48
35 -115 l15 -96 -79 -237 c-43 -130 -82 -253 -86 -272 -3 -19 -24 -71 -46
-115 -21 -44 -53 -132 -69 -195 -33 -122 -58 -198 -70 -205 -10 -6 9 93 136
731 94 469 111 544 127 544 9 0 17 -4 17 -10z m1286 -57 c-2 -10 -10 -44 -17
-75 -9 -41 -17 -58 -28 -58 -34 -1 -102 -40 -119 -70 -9 -16 -23 -30 -29 -30
-13 0 16 93 63 198 l23 52 56 0 c49 0 56 -2 51 -17z m-236 -42 c0 -39 -74
-158 -230 -371 -47 -63 -98 -141 -115 -172 -16 -32 -35 -58 -41 -58 -6 0 -25
-36 -44 -81 -37 -91 -150 -294 -180 -324 -20 -19 -20 -19 -20 16 0 23 13 60
35 100 20 35 43 81 52 102 9 20 21 37 28 37 7 0 22 24 33 54 34 88 244 426
325 522 32 38 75 95 95 126 33 51 62 74 62 49z m-1255 -274 c-33 -191 -122
-400 -274 -644 -42 -67 -77 -118 -79 -113 -10 28 196 586 304 825 l59 130 3
-53 c2 -28 -4 -94 -13 -145z m-11965 86 c-1 -55 -24 -98 -40 -73 -5 8 -10 39
-10 68 0 49 1 52 25 52 23 0 25 -3 25 -47z m13366 -140 c-45 -150 -81 -254
-147 -423 -28 -74 -63 -164 -76 -200 -13 -36 -41 -92 -62 -125 -21 -33 -80
-131 -132 -217 -51 -87 -95 -156 -96 -154 -2 2 25 91 61 197 36 107 69 216 72
242 5 32 13 51 25 58 11 5 19 18 19 28 0 9 9 51 19 91 11 41 16 77 12 80 -8 5
-41 64 -41 73 0 2 29 9 64 17 l63 13 22 69 c34 105 104 236 166 311 31 38 59
66 62 64 2 -3 -12 -58 -31 -124z m-5818 -125 c49 -60 127 -279 139 -388 l5
-56 -38 -12 c-33 -10 -41 -9 -57 6 -34 30 -115 160 -137 219 -21 56 -51 221
-43 236 7 12 120 8 131 -5z m1831 -13 l44 -11 73 -233 c71 -224 77 -238 146
-344 39 -61 86 -144 103 -184 32 -73 63 -189 52 -199 -7 -7 -116 52 -131 70
-17 22 -242 96 -396 130 l-25 5 0 368 c0 262 4 376 12 395 13 30 17 30 122 3z
m-7315 -112 c14 -43 39 -136 55 -208 17 -71 43 -174 57 -229 38 -143 29 -155
-145 -195 -52 -12 -129 -40 -173 -62 l-78 -39 0 40 c0 72 30 191 95 370 35 96
68 195 75 220 11 42 76 180 84 180 3 0 16 -35 30 -77z m1334 -218 c19 -56 9
-261 -20 -400 l-23 -110 -37 -3 -36 -3 -7 87 c-10 112 0 338 16 387 16 47 54
89 77 85 10 -2 23 -20 30 -43z m4809 -20 c48 -20 71 -41 94 -87 24 -46 38
-148 30 -208 -6 -43 -7 -45 -43 -48 -29 -2 -38 1 -38 12 0 8 -25 43 -55 77
-61 68 -110 161 -120 227 l-7 42 51 0 c29 0 68 -7 88 -15z m3279 -110 c-14
-36 -56 -90 -56 -72 0 4 15 36 32 72 35 71 51 71 24 0z m1356 -80 c7 -7 -38
-249 -68 -370 -58 -233 -97 -364 -125 -427 -39 -87 -37 -127 8 -148 18 -8 33
-18 33 -23 0 -16 -70 -145 -95 -175 -14 -16 -37 -57 -52 -89 -14 -32 -45 -79
-69 -106 -23 -26 -59 -78 -79 -115 -21 -37 -43 -70 -50 -75 -8 -4 -16 -20 -20
-36 -5 -23 -13 -31 -33 -33 -23 -3 -27 -8 -30 -39 -2 -24 -16 -51 -44 -85 -22
-27 -64 -85 -94 -129 -51 -79 -222 -271 -231 -261 -16 16 184 321 258 396 30
30 76 91 101 135 50 86 128 246 128 264 0 5 8 15 19 20 11 6 29 43 46 94 24
75 26 88 15 127 -17 65 -68 160 -85 160 -8 0 -25 12 -39 26 -22 25 -29 26 -76
21 -117 -14 -203 -78 -356 -263 -88 -107 -192 -209 -231 -227 -12 -5 -23 -14
-23 -18 0 -18 -93 -107 -130 -125 -22 -10 -40 -25 -40 -31 0 -8 -13 -13 -30
-13 -28 0 -29 1 -19 27 20 52 140 198 205 247 22 17 88 88 146 157 130 156
148 182 148 207 0 12 9 23 21 27 11 4 37 32 56 63 20 32 43 62 50 67 8 6 19
20 26 32 76 136 106 170 177 196 25 10 66 29 92 45 54 31 219 163 261 207 49
53 155 204 168 240 9 25 19 35 34 35 12 0 24 -2 27 -5z m-1457 -277 c-21 -103
-56 -207 -122 -358 -30 -69 -57 -131 -60 -137 -3 -9 4 -13 20 -13 14 0 29 -4
32 -10 11 -18 21 -11 45 33 78 138 193 284 258 327 39 25 92 40 92 26 0 -3
-46 -107 -103 -233 -131 -289 -120 -257 -162 -470 -33 -168 -39 -188 -85 -270
-28 -48 -50 -94 -50 -100 0 -7 -7 -13 -15 -13 -8 0 -15 -4 -15 -9 0 -4 -10
-21 -22 -37 l-23 -28 -6 29 c-4 17 -8 129 -9 250 -1 121 -5 261 -9 310 l-6 90
-87 3 -88 3 0 -26 c0 -19 -5 -25 -21 -25 -29 0 -52 -14 -96 -60 -34 -34 -73
-64 -122 -94 -8 -5 0 11 16 35 17 24 45 72 62 107 26 51 36 62 56 62 20 0 25
5 25 25 0 14 6 25 13 26 25 1 218 288 247 368 19 50 27 61 45 61 19 0 26 9 39
47 9 26 43 92 75 147 33 56 66 114 73 131 12 28 13 26 16 -45 2 -41 -4 -109
-13 -152z m-3423 192 c44 -13 54 -36 63 -155 7 -74 11 -88 66 -182 94 -162
112 -238 67 -280 -30 -27 -44 -29 -95 -13 -34 10 -43 18 -43 35 0 13 -10 30
-24 38 -86 57 -198 350 -183 479 9 73 21 88 70 88 23 0 59 -5 79 -10z m4553
-47 c-13 -68 -58 -118 -125 -138 l-25 -8 28 34 c15 19 43 60 63 92 44 68 70
77 59 20z m-3292 -388 c31 -8 88 -31 127 -50 l70 -35 0 -50 0 -50 -82 0 c-67
0 -98 6 -161 29 -43 16 -89 37 -102 45 -32 21 -41 57 -24 96 13 28 18 30 64
30 28 0 76 -7 108 -15z m2545 -16 c11 -18 10 -26 -13 -64 -23 -40 -58 -65 -72
-51 -7 7 55 136 65 136 4 0 13 -9 20 -21z m-9849 -250 c6 -18 11 -56 11 -85 0
-50 -2 -55 -31 -69 -77 -40 -221 -54 -335 -33 l-64 11 0 39 c0 34 3 38 25 38
14 0 25 5 25 10 0 6 -16 10 -35 10 -30 0 -35 -3 -35 -24 0 -31 -19 -34 -227
-42 l-163 -7 0 27 c0 23 4 26 34 26 19 0 42 3 52 7 13 5 10 9 -17 22 -19 9
-35 23 -37 32 -6 30 109 43 383 45 138 1 268 7 290 12 22 5 56 10 77 11 32 1
37 -3 47 -30z m9761 -59 c0 -35 -3 -40 -23 -40 -19 0 -25 -8 -35 -45 -6 -24
-26 -59 -42 -77 -25 -26 -30 -29 -25 -12 3 12 12 57 20 100 23 117 21 114 66
114 39 0 39 0 39 -40z m-2751 -106 c31 -6 31 -7 31 -73 0 -88 -21 -129 -80
-158 -25 -12 -68 -25 -96 -29 -51 -6 -51 -6 -63 26 -6 18 -11 62 -11 98 0 61
2 66 39 103 35 36 43 39 94 39 30 0 69 -3 86 -6z m-7826 -96 c-11 -18 -29 -34
-41 -36 -19 -3 -22 1 -22 32 0 35 1 36 41 36 l41 0 -19 -32z m11257 -4 c0 -19
-10 -58 -21 -85 -18 -41 -29 -52 -68 -70 -25 -11 -75 -48 -111 -83 -58 -57
-206 -154 -217 -142 -2 2 61 73 141 157 89 93 156 173 173 206 26 50 30 53 66
53 36 0 37 -1 37 -36z m-11140 -12 c0 -19 -7 -30 -22 -37 -17 -7 -24 -20 -26
-47 -3 -35 -4 -36 -27 -26 -20 9 -22 14 -14 35 5 13 9 39 9 57 0 41 5 46 47
46 29 0 33 -3 33 -28z m9786 -19 c-25 -71 -54 -119 -91 -151 -20 -18 -40 -32
-45 -32 -21 0 11 126 42 166 19 23 97 68 105 60 2 -2 -3 -21 -11 -43z m1134 2
c0 -15 -38 -55 -52 -55 -12 0 -9 45 4 58 17 17 48 15 48 -3z m-9500 -58 c0
-48 -3 -55 -25 -65 -14 -7 -37 -12 -50 -12 -14 0 -25 -6 -25 -14 0 -9 -32 -18
-111 -30 -61 -10 -123 -22 -137 -27 -30 -11 -33 -8 -63 71 -34 91 -32 92 167
111 93 9 186 17 207 18 l37 1 0 -53z m7098 1 c28 -11 56 -28 62 -37 8 -16 29
-19 147 -25 165 -8 244 -21 295 -47 34 -17 68 -62 68 -89 0 -6 -68 -10 -205
-10 -171 0 -219 3 -292 20 -103 25 -129 39 -138 78 l-6 29 -147 7 c-191 8
-202 10 -202 47 0 25 4 29 28 29 15 0 32 4 38 9 25 26 273 18 352 -11z m-8093
0 c19 -17 27 -36 32 -75 l6 -53 -183 0 c-183 0 -250 10 -250 36 0 16 14 20
135 39 137 22 141 23 155 51 18 32 69 33 105 2z m10365 -56 c0 -42 -4 -51 -25
-62 -14 -7 -25 -19 -25 -27 0 -7 -11 -13 -25 -13 -21 0 -25 5 -25 30 0 22 12
43 41 75 23 25 45 45 50 45 5 0 9 -22 9 -48z m-975 -219 c-10 -99 -34 -211
-57 -264 -22 -52 -69 -103 -110 -118 l-28 -11 0 54 c0 46 3 54 25 66 22 12 25
20 25 64 1 46 4 53 33 71 44 28 67 78 67 148 0 55 1 57 26 57 l26 0 -7 -67z
m1199 -10 c-13 -52 -19 -62 -54 -85 -23 -16 -49 -51 -80 -111 -44 -83 -84
-137 -102 -137 -18 0 -5 26 68 133 42 62 86 132 97 157 25 58 35 70 58 70 16
0 18 -5 13 -27z m-9356 -243 c103 -9 122 -19 122 -60 0 -25 -6 -30 -47 -44
-51 -17 -331 -43 -358 -32 -18 6 -58 93 -50 107 11 17 101 38 170 38 39 0 112
-4 163 -9z m6630 -76 c90 -7 90 -7 94 -35 4 -23 1 -29 -14 -29 -12 0 -18 -7
-18 -23 0 -23 -4 -24 -159 -41 -88 -9 -234 -21 -325 -27 l-166 -10 -35 28
c-32 25 -55 67 -43 78 9 9 245 45 348 54 141 11 210 12 318 5z m-53 -195 c31
-11 41 -20 43 -40 3 -22 -2 -27 -36 -37 -39 -12 -313 -45 -484 -58 -66 -5 -92
-3 -104 7 -16 13 -68 109 -62 114 2 1 62 10 133 18 162 19 451 17 510 -4z
m-1127 -53 c30 -15 33 -21 30 -54 l-3 -37 -165 0 -165 0 -3 36 c-3 40 7 52 58
68 54 16 209 8 248 -13z m-5135 -146 c21 -12 37 -27 37 -34 0 -7 28 -18 65
-25 36 -7 80 -23 98 -35 28 -19 32 -28 35 -75 l3 -54 -125 6 c-184 9 -282 -10
-341 -63 -13 -12 -54 -24 -120 -33 -111 -17 -128 -13 -175 38 -14 15 -36 33
-50 40 -20 10 -28 26 -38 72 -20 99 -26 93 87 93 l99 0 16 -40 16 -40 69 0
c66 0 71 1 83 28 8 17 33 37 65 53 42 20 50 28 40 38 -10 10 -6 17 18 37 34
28 62 27 118 -6z m5517 -7 l0 -38 -197 0 c-136 0 -207 -4 -227 -13 -16 -7 -26
-16 -22 -20 4 -4 114 -10 244 -13 l237 -7 80 -34 c68 -30 80 -39 83 -61 l3
-27 -125 0 -126 0 0 -81 c0 -71 -2 -80 -16 -75 -29 11 -526 18 -624 9 -100
-10 -385 7 -447 26 -81 24 -153 87 -153 134 0 32 124 33 151 1 10 -12 75 -14
402 -14 215 0 388 2 385 5 -2 3 -64 11 -136 19 -72 8 -149 20 -171 26 -49 13
-101 55 -101 81 0 17 8 19 63 20 l62 1 -52 24 c-43 20 -53 30 -53 50 l0 24
370 0 370 0 0 -37z"/>
<path d="M10045 18013 c5 -10 15 -44 24 -75 l16 -58 70 0 c108 0 115 -8 115
-130 l0 -99 41 -56 c23 -30 45 -55 48 -55 4 0 23 -16 44 -35 20 -19 59 -46 87
-60 27 -14 50 -32 50 -40 0 -8 -20 -28 -44 -45 -25 -16 -48 -39 -51 -50 -5
-15 -15 -20 -45 -20 -32 0 -43 6 -64 33 -14 19 -31 48 -37 65 -10 28 -14 31
-37 26 -90 -22 -110 -59 -92 -173 6 -43 15 -83 18 -88 4 -6 37 -24 73 -41 97
-43 141 -89 198 -201 26 -53 50 -103 53 -111 4 -12 9 -12 32 3 55 36 54 55 -8
163 -55 97 -77 158 -60 173 5 4 25 14 44 21 105 41 218 137 240 206 7 19 18
34 25 34 22 0 57 108 62 190 5 73 0 99 -44 243 -5 15 5 17 110 17 92 0 117 -3
128 -16 33 -39 26 -250 -16 -501 -18 -108 -25 -180 -23 -250 l3 -97 42 -31
c23 -16 45 -38 48 -47 5 -13 17 -18 44 -18 l37 0 28 308 c36 404 54 552 67
569 8 9 37 13 95 13 l84 0 0 30 c0 16 -9 54 -20 84 -24 63 -5 57 -260 81 -331
30 -805 55 -1059 55 -66 0 -72 -2 -66 -17z m567 -159 c34 -6 37 -9 52 -63 20
-73 20 -159 0 -233 -15 -54 -19 -58 -46 -58 -20 0 -49 15 -89 46 l-59 45 0
120 0 120 33 14 c36 16 56 17 109 9z"/>
<path d="M7160 17383 c-8 -3 -51 -21 -94 -40 -43 -18 -101 -39 -127 -44 -28
-6 -49 -16 -49 -24 0 -7 -21 -18 -47 -26 -27 -7 -52 -18 -58 -25 -5 -7 -44
-26 -85 -44 -93 -40 -176 -85 -400 -216 -96 -56 -196 -112 -222 -125 -27 -13
-48 -26 -48 -30 0 -10 98 -93 127 -108 30 -16 58 -14 74 5 20 25 111 74 137
74 66 0 100 -42 171 -214 l46 -111 82 -27 c45 -16 125 -33 177 -40 53 -7 96
-15 96 -18 0 -3 -23 -46 -52 -95 -44 -78 -78 -158 -78 -187 0 -4 40 -8 90 -8
l90 0 33 68 c19 37 53 115 77 175 25 64 48 107 56 107 8 0 25 -18 38 -39 21
-33 33 -41 76 -50 28 -6 73 -11 100 -11 46 0 50 2 50 23 0 75 -56 194 -176
380 -47 71 -101 161 -120 200 -34 67 -68 192 -58 209 9 14 82 48 104 48 15 0
20 7 20 25 0 14 6 25 13 25 6 0 29 5 49 10 l38 11 -48 64 c-47 63 -54 68 -82
58z m-231 -475 c62 -128 63 -134 57 -191 -11 -106 -64 -194 -135 -224 -32 -14
-35 -13 -63 14 -45 42 -123 165 -148 229 -11 32 -24 85 -26 118 -6 61 -6 61
28 80 91 51 200 106 211 106 8 0 42 -59 76 -132z"/>
<path d="M13540 17239 c0 -71 0 -72 45 -120 50 -53 53 -68 35 -188 l-9 -63 48
-77 c61 -96 86 -146 99 -193 l10 -38 -104 0 -105 0 -19 43 c-11 24 -22 62 -26
86 l-7 43 -45 -5 c-91 -10 -132 -69 -132 -189 l0 -77 36 -17 c81 -39 111 -125
100 -291 l-7 -103 41 0 40 0 0 155 0 155 43 0 c23 1 87 7 142 14 93 12 110 18
245 86 80 40 148 76 151 81 3 5 16 61 29 124 13 68 28 115 35 115 58 0 185
-84 185 -123 0 -9 -17 -45 -38 -79 -61 -100 -292 -433 -303 -436 -5 -2 -19
-23 -31 -45 -26 -52 -28 -124 -4 -192 10 -27 19 -55 21 -62 7 -21 65 9 104 54
20 22 119 174 221 337 128 206 192 298 206 302 12 3 39 1 60 -5 40 -11 174
-98 174 -113 0 -34 -155 -282 -266 -425 -35 -45 -64 -91 -64 -102 0 -11 -9
-22 -21 -26 -78 -25 -77 -210 1 -280 l22 -20 22 29 c11 15 35 43 53 61 17 17
48 65 68 106 44 87 118 195 144 209 10 5 44 55 75 110 96 169 165 231 191 173
5 -13 12 -23 15 -23 4 0 33 -16 66 -36 32 -20 63 -36 68 -37 5 -1 18 37 30 84
l21 87 -55 26 c-30 15 -119 80 -197 144 -78 65 -160 127 -182 138 -23 10 -41
25 -41 32 0 6 -11 12 -25 12 -14 0 -25 6 -25 13 -1 12 -120 87 -140 87 -5 0
-10 7 -10 15 0 8 -23 26 -52 41 -28 14 -145 82 -259 150 -204 121 -397 224
-421 224 -6 0 -21 8 -32 19 -18 15 -194 81 -219 81 -4 0 -7 -32 -7 -71z m428
-299 c72 -38 86 -54 79 -93 -3 -20 -14 -53 -24 -74 -21 -45 -139 -166 -156
-160 -19 6 -58 94 -64 146 -18 157 56 239 165 181z"/>
<path d="M5332 16303 c-18 -10 -40 -30 -50 -45 -9 -14 -55 -53 -100 -86 -166
-118 -317 -264 -500 -483 -40 -48 -72 -89 -72 -92 0 -12 113 -47 152 -47 33 0
46 6 72 35 37 40 66 44 114 15 44 -27 56 -61 42 -123 -13 -60 -26 -87 -45 -87
-16 0 -38 -60 -33 -92 2 -12 22 -34 50 -52 43 -29 47 -34 47 -73 1 -36 -30
-226 -45 -275 -3 -10 -11 -18 -17 -18 -7 0 -20 -18 -30 -40 -26 -55 -77 -92
-135 -97 -73 -7 -84 7 -71 87 5 36 19 84 30 107 20 41 98 117 147 142 32 17
27 27 -23 46 -64 25 -148 17 -200 -18 -47 -32 -112 -38 -100 -9 40 93 47 120
42 162 -4 32 -12 50 -31 65 -14 11 -26 30 -26 42 0 19 -3 21 -32 13 -18 -5
-72 -11 -119 -15 -83 -6 -88 -8 -122 -43 -70 -72 -90 -153 -65 -261 11 -50 13
-51 67 -72 36 -13 91 -23 154 -26 l97 -6 0 -91 c0 -122 13 -143 124 -198 l84
-42 88 18 c236 46 335 167 359 437 l6 76 107 11 c175 19 253 74 285 199 9 35
22 59 41 74 l29 23 29 -35 c15 -19 36 -47 46 -62 16 -27 20 -28 65 -23 51 7
177 44 177 52 0 19 -39 70 -105 134 -42 41 -90 94 -106 118 -17 23 -37 42 -45
42 -8 0 -17 6 -20 14 -3 8 -31 41 -62 73 -31 32 -79 87 -107 123 -27 35 -69
78 -92 95 -50 36 -49 47 11 123 22 30 53 70 68 89 15 20 25 40 22 45 -8 13
-99 53 -139 62 -20 4 -41 0 -63 -11z m-36 -428 c29 -30 57 -55 62 -55 32 0 91
-116 107 -207 6 -39 1 -55 -63 -187 -49 -102 -76 -146 -91 -151 -11 -3 -21
-13 -21 -21 0 -10 -13 -14 -50 -14 -27 0 -50 5 -50 10 0 6 -11 16 -25 22 -14
6 -25 18 -25 27 0 9 18 54 40 101 45 96 53 163 23 198 -10 11 -64 44 -120 72
-94 49 -101 54 -91 74 5 12 25 31 44 41 19 10 60 47 90 82 74 84 97 85 170 8z
m-768 -650 c-6 -75 -26 -111 -71 -130 -31 -14 -33 -13 -69 25 -41 42 -48 78
-27 139 l11 31 80 0 81 0 -5 -65z"/>
<path d="M15810 15671 c-16 -88 -10 -106 76 -203 l65 -73 -28 -23 c-15 -12
-38 -25 -50 -28 -16 -4 -23 -14 -23 -29 0 -18 -7 -24 -34 -29 -23 -4 -37 -14
-41 -27 -5 -15 -14 -19 -33 -17 -25 3 -28 9 -40 67 -7 36 -14 66 -16 68 -2 2
-25 -1 -51 -8 -42 -11 -51 -18 -86 -73 -98 -155 -179 -439 -179 -633 l0 -63
33 0 33 0 32 138 c49 209 70 272 90 271 9 0 44 -6 77 -13 l60 -12 39 -115 c22
-63 44 -116 50 -118 26 -9 86 -83 86 -105 0 -19 -9 -28 -42 -41 -23 -9 -57
-30 -75 -46 -19 -16 -38 -29 -43 -29 -20 0 -7 -226 13 -247 6 -5 111 70 122
86 3 6 49 43 102 82 53 40 103 85 112 100 9 16 27 30 44 33 36 7 117 63 117
81 0 14 103 82 158 105 49 19 75 2 133 -90 28 -44 58 -80 65 -80 27 0 104 85
104 115 0 33 -70 165 -87 165 -7 0 -13 8 -13 18 0 28 -60 124 -81 129 -13 4
-19 14 -19 32 0 18 -9 31 -29 42 -15 9 -50 47 -76 85 -61 87 -93 122 -127 140
-17 9 -28 23 -28 36 0 12 -36 58 -94 118 -51 54 -124 134 -161 179 -63 74 -71
81 -105 81 l-37 0 -13 -69z m321 -458 c0 -21 11 -36 42 -58 47 -35 93 -116
103 -182 6 -41 5 -43 -19 -43 -18 0 -42 -16 -75 -49 -27 -27 -73 -61 -102 -76
l-52 -26 -55 42 c-92 72 -126 126 -147 234 -6 28 -3 31 51 57 65 30 143 92
143 114 0 10 14 14 55 14 53 0 55 -1 56 -27z"/>
<path d="M3598 14282 c-37 -64 -82 -149 -100 -189 -29 -64 -36 -72 -60 -73
-16 0 -28 -6 -28 -12 0 -7 -34 -85 -76 -173 -122 -257 -246 -537 -240 -543 7
-7 166 16 205 29 24 9 31 17 31 37 0 25 26 89 48 120 11 16 96 -10 237 -72
l100 -44 3 -76 3 -76 62 0 c73 0 172 22 226 50 72 36 102 108 62 144 -50 46
-44 93 27 210 23 39 42 76 42 84 0 9 6 12 18 9 9 -4 50 -18 90 -32 89 -32 202
-45 202 -24 0 8 17 23 38 34 46 25 56 66 20 89 -44 28 -324 154 -413 185 -50
18 -95 38 -100 45 -6 7 -64 36 -130 64 -92 39 -121 55 -123 71 -2 11 23 71 55
133 32 62 60 116 61 120 2 4 -41 8 -95 8 l-98 0 -67 -118z m120 -352 c32 -8
52 -17 52 -26 0 -8 8 -14 17 -14 28 0 83 -23 83 -35 0 -12 56 -35 85 -35 15 0
17 -6 12 -35 -9 -54 -100 -245 -117 -245 -8 -1 -31 -7 -50 -13 -34 -12 -38
-10 -126 45 -50 31 -108 65 -128 74 -41 20 -40 16 -25 103 19 122 73 207 123
196 11 -2 45 -9 74 -15z"/>
<path d="M16977 14135 c-11 -24 -23 -35 -38 -35 -19 0 -21 -4 -16 -37 9 -53
81 -195 175 -343 44 -70 90 -146 102 -170 l22 -44 -22 -18 c-12 -9 -46 -25
-76 -35 -48 -15 -57 -15 -64 -3 -15 24 -152 339 -176 405 l-22 60 -60 3 -61 3
-17 -56 c-15 -46 -21 -55 -41 -55 -17 0 -23 -6 -23 -22 0 -13 -11 -67 -24
-122 l-24 -98 32 7 c17 3 61 9 98 12 l67 6 46 -94 c25 -52 48 -111 51 -130 6
-36 6 -36 -38 -47 -46 -12 -316 -128 -332 -143 -8 -7 -45 -158 -46 -187 0 -28
148 23 350 120 91 43 195 89 232 101 39 12 69 28 71 37 3 13 166 87 172 78 1
-2 13 -34 27 -73 70 -192 84 -225 91 -225 5 0 32 23 61 50 29 28 58 50 65 50
16 0 7 32 -45 165 -23 61 -49 111 -56 113 -7 1 -19 26 -26 54 -15 67 -146 324
-181 357 -14 14 -62 99 -106 189 l-80 162 -35 0 c-32 0 -38 -5 -53 -35z"/>
<path d="M3208 12592 c-42 -14 -49 -20 -55 -51 -18 -92 1 -161 56 -200 28 -20
35 -21 98 -11 99 15 119 26 137 71 48 119 -12 210 -136 208 -29 0 -74 -8 -100
-17z"/>
<path d="M17192 12223 c-43 -21 -62 -59 -62 -125 1 -74 31 -138 65 -138 14 0
25 -4 25 -10 0 -13 100 -13 156 1 52 13 59 29 59 129 0 102 -7 115 -70 139
-67 25 -128 26 -173 4z"/>
<path d="M3356 11643 c-3 -10 -28 -99 -56 -198 -86 -302 -90 -315 -104 -315
-8 0 -17 -11 -20 -25 -6 -22 -12 -25 -51 -25 -25 0 -45 4 -45 10 0 5 -18 19
-41 30 -61 32 -158 103 -159 118 0 14 -19 16 -38 4 -10 -7 -6 -25 18 -81 52
-121 102 -312 86 -328 -3 -3 -28 6 -55 20 -62 34 -88 34 -103 1 -7 -15 -8 -28
-2 -32 10 -8 13 -13 102 -175 35 -65 61 -121 58 -125 -4 -3 -10 -1 -14 5 -8
12 -113 46 -120 38 -10 -9 61 -186 79 -195 12 -7 24 -40 39 -106 12 -52 19
-98 16 -101 -3 -3 -43 13 -89 35 -46 23 -89 42 -95 42 -20 0 -13 -40 12 -64
12 -13 26 -31 29 -40 4 -9 17 -20 30 -25 19 -7 32 -31 58 -101 22 -60 40 -94
52 -97 10 -3 17 -15 17 -29 0 -32 -32 -32 -110 1 -33 14 -62 25 -65 25 -3 0
-5 -17 -5 -38 0 -34 3 -39 35 -51 19 -7 35 -17 35 -22 0 -5 11 -13 23 -18 25
-10 79 -94 144 -226 38 -77 40 -85 51 -235 30 -390 135 -905 287 -1410 34
-113 55 -198 53 -220 -2 -29 -30 33 -155 345 -279 696 -411 1105 -498 1539
-54 268 -83 590 -85 939 l0 58 -47 -3 -48 -3 -7 -55 c-4 -30 -10 -176 -14
-325 -8 -304 -4 -357 57 -795 22 -157 38 -294 37 -304 -3 -16 -7 -14 -36 15
-34 35 -64 115 -76 204 -9 61 -14 70 -43 77 -23 6 -23 6 -23 -119 0 -225 37
-404 178 -858 44 -143 86 -279 91 -302 20 -76 311 -716 411 -903 54 -102 118
-224 141 -272 24 -49 48 -88 54 -88 6 0 56 -70 110 -157 54 -86 107 -163 118
-172 70 -56 89 -79 116 -132 17 -33 42 -69 56 -80 14 -11 25 -25 25 -31 0 -18
110 -148 187 -221 40 -38 98 -102 129 -143 31 -41 63 -74 70 -74 8 0 14 -7 14
-15 0 -8 6 -15 13 -15 8 0 19 -11 27 -24 7 -13 21 -27 31 -29 10 -3 22 -12 25
-21 3 -9 22 -33 43 -54 20 -21 47 -51 61 -67 47 -55 109 -105 129 -105 11 0
25 -9 31 -20 6 -11 16 -20 23 -20 7 0 53 -31 104 -69 50 -37 107 -74 125 -81
18 -7 40 -21 48 -30 8 -9 38 -25 65 -35 62 -22 123 -61 130 -85 3 -11 20 -21
43 -25 20 -4 106 -38 190 -76 172 -77 213 -84 257 -46 23 20 25 25 15 47 -6
14 -39 41 -73 60 -34 19 -100 73 -147 119 -47 46 -109 107 -139 134 -134 123
-272 310 -385 520 -32 59 -63 107 -70 107 -6 0 -50 80 -96 178 -46 97 -162
337 -257 532 -184 375 -226 480 -381 950 -170 515 -191 589 -227 817 -53 333
-115 862 -115 985 0 39 0 39 -37 36 l-38 -3 2 -266 c5 -883 165 -1674 481
-2385 73 -161 90 -234 57 -234 -21 0 -286 541 -324 663 -82 259 -135 501 -231
1067 -33 195 -74 425 -90 510 -31 165 -57 477 -45 552 12 84 17 98 31 98 8 0
17 8 21 18 3 9 41 108 84 218 44 111 79 207 79 213 0 16 -28 0 -110 -59 -36
-26 -76 -51 -89 -55 l-24 -7 20 28 c12 16 36 65 54 108 19 46 49 97 71 119 21
22 38 47 38 55 0 8 6 20 14 26 7 6 18 30 24 54 l10 42 -39 0 c-26 0 -39 -5
-39 -13 0 -29 -101 -99 -118 -82 -9 9 15 51 79 137 87 117 114 188 70 188 -11
0 -21 -5 -23 -11 -2 -6 -25 -9 -55 -7 l-52 3 45 65 c24 36 53 88 63 115 22 59
45 154 39 160 -2 3 -21 0 -41 -6 -54 -15 -77 -5 -77 34 0 35 34 115 73 171 23
35 23 37 8 86 -12 41 -19 50 -38 50 -13 0 -23 -6 -23 -14 0 -31 -177 -156
-220 -156 -14 0 -7 109 16 240 13 70 80 356 100 423 4 13 -1 17 -20 17 -15 0
-27 -7 -30 -17z m-267 -730 c25 -94 25 -92 2 -86 -32 8 -61 51 -61 89 0 29 3
34 25 34 20 0 26 -7 34 -37z m276 -24 c20 -31 -40 -119 -81 -119 -21 0 -23 3
-14 19 5 11 10 29 10 40 0 16 6 21 25 21 20 0 25 5 25 25 0 25 23 35 35 14z
m-281 -313 c3 -13 9 -31 12 -40 3 -9 1 -16 -5 -16 -6 0 -11 6 -11 13 0 8 -9
22 -20 32 -25 23 -25 35 -1 35 12 0 21 -9 25 -24z m276 -46 c0 -5 -6 -10 -13
-10 -8 0 -19 -11 -25 -25 -6 -14 -19 -25 -27 -25 -18 0 -13 13 18 48 21 23 47
30 47 12z m-280 -236 c0 -17 6 -28 19 -31 10 -2 25 -20 34 -38 15 -32 15 -34
-7 -49 -22 -14 -25 -13 -47 10 -12 13 -28 24 -36 24 -9 0 -13 16 -13 55 0 52
1 55 25 55 20 0 25 -5 25 -26z m283 -78 c-17 -22 -63 -56 -77 -56 -19 0 0 30
41 63 49 40 68 36 36 -7z m-305 -197 c20 -23 45 -57 55 -75 9 -19 24 -34 32
-34 8 0 15 -7 15 -15 0 -11 -11 -15 -38 -15 -31 0 -45 7 -70 34 -17 19 -40 37
-51 41 -18 5 -21 15 -21 56 0 42 3 49 20 49 11 0 37 -19 58 -41z m329 -59
c-13 -32 -27 -50 -38 -50 -9 0 -22 -7 -29 -15 -16 -20 -30 -19 -30 1 0 18 91
114 108 114 6 0 1 -22 -11 -50z m-237 -352 c0 -5 -4 -8 -9 -8 -5 0 -15 -2 -23
-5 -7 -3 -19 -1 -26 4 -11 7 -12 12 -1 29 12 19 14 19 36 4 12 -10 23 -20 23
-24z m165 -225 c3 -10 11 -90 16 -178 6 -95 23 -223 40 -315 38 -197 109 -611
154 -900 48 -306 46 -342 -13 -283 -25 25 -37 63 -105 348 -144 599 -197 892
-222 1236 l-7 87 29 10 c47 17 100 14 108 -5z m-569 -651 c63 -256 78 -303
136 -432 70 -155 135 -317 221 -550 48 -129 52 -146 38 -156 -13 -10 -22 0
-59 69 -193 360 -340 794 -397 1174 -8 51 -19 101 -24 112 -15 27 -14 71 2 71
8 0 37 -103 83 -288z m134 11 c0 -53 0 -53 -29 5 l-21 42 25 0 c23 0 25 -3 25
-47z m85 -270 c19 -63 19 -63 -10 -63 -24 0 -25 2 -25 73 1 79 9 76 35 -10z
m155 -333 c66 -200 113 -305 317 -705 139 -274 196 -393 188 -401 -7 -8 -16
-2 -33 22 -12 19 -30 34 -38 34 -17 0 -64 93 -64 128 0 12 -6 22 -12 22 -26 1
-376 714 -427 869 -12 35 -21 84 -21 108 0 42 1 44 26 41 25 -3 30 -12 64
-118z m480 -535 c16 -43 24 -129 11 -121 -17 11 -71 108 -71 129 0 28 48 22
60 -8z m-340 -180 c0 -16 -6 -25 -15 -25 -9 0 -15 9 -15 25 0 16 6 25 15 25 9
0 15 -9 15 -25z m716 -90 c10 -33 10 -35 -12 -35 -21 0 -24 5 -24 35 0 21 5
35 13 35 6 0 17 -16 23 -35z m77 -163 c21 -19 24 -82 3 -82 -17 0 -70 86 -61
100 7 11 33 3 58 -18z m-516 -202 c42 -25 89 -90 111 -153 11 -31 27 -54 45
-65 22 -13 27 -23 27 -54 0 -35 -2 -38 -29 -38 -23 0 -41 13 -84 60 -71 78
-107 147 -114 215 -3 30 -2 55 3 55 5 0 23 -9 41 -20z m647 -106 c4 -14 53
-127 110 -252 57 -125 108 -244 115 -264 7 -20 19 -38 28 -40 19 -4 63 -152
63 -213 l0 -40 -36 60 c-54 88 -110 208 -125 264 -8 31 -19 51 -29 54 -10 2
-20 17 -24 32 -4 15 -36 91 -71 168 -63 139 -95 236 -95 286 l0 25 29 -28 c16
-16 32 -39 35 -52z m-28 -341 c-7 -16 -9 -16 -21 7 -23 40 -19 58 6 33 15 -14
19 -27 15 -40z m-251 -115 c10 -15 11 -24 5 -26 -11 -4 -39 25 -40 41 0 15 19
6 35 -15z m100 -88 c3 -5 19 -10 36 -10 26 0 29 -3 29 -30 0 -21 5 -30 16 -30
9 0 57 -41 107 -91 50 -50 101 -95 114 -100 19 -7 23 -16 23 -53 0 -50 -7 -76
-22 -76 -42 0 -255 194 -304 277 -28 47 -46 102 -38 114 7 12 31 11 39 -1z
m461 -467 c32 -24 71 -90 60 -101 -21 -20 -167 92 -152 116 12 20 56 13 92
-15z"/>
<path d="M13458 4587 c-27 -6 -48 -15 -48 -21 0 -6 -10 -16 -22 -21 -14 -6
-24 -21 -26 -36 -3 -22 2 -29 29 -38 48 -17 103 -13 181 10 60 18 76 20 109
10 44 -13 50 -27 15 -40 -13 -5 -25 -18 -28 -28 -3 -11 -23 -26 -49 -36 -24
-9 -70 -26 -101 -37 -57 -21 -58 -22 -58 -60 0 -30 4 -39 21 -43 11 -3 23 -15
26 -27 5 -20 10 -22 52 -16 62 8 141 39 153 60 5 9 15 16 22 16 7 0 23 11 36
25 17 18 34 25 62 25 38 0 38 0 38 -40 l0 -41 -113 -73 c-167 -108 -184 -139
-147 -258 20 -64 23 -68 50 -68 25 0 30 -4 30 -24 0 -21 8 -27 54 -40 30 -9
59 -16 65 -16 6 0 11 -7 11 -16 0 -22 101 -64 155 -64 33 0 45 4 45 14 0 18
-48 55 -110 86 -84 42 -131 81 -151 124 -25 56 -24 88 6 116 14 13 25 29 25
35 0 6 15 17 34 23 19 7 37 19 40 27 3 10 20 15 48 15 41 0 69 -17 88 -55 26
-50 74 -125 81 -125 5 0 18 -18 29 -40 23 -46 51 -60 116 -60 l44 0 0 41 c0
23 -7 47 -15 55 -8 9 -20 35 -26 60 -9 36 -15 44 -35 44 -16 0 -28 10 -40 31
-9 18 -45 74 -80 124 -69 100 -103 167 -104 203 0 18 15 29 75 59 41 21 75 43
75 49 0 12 -76 48 -125 58 -20 4 -55 -2 -103 -18 l-72 -25 -101 19 c-55 11
-114 26 -131 35 -34 17 -60 17 -130 2z"/>
<path d="M6521 4541 c-6 -21 -11 -54 -11 -73 0 -30 5 -37 31 -49 41 -17 89
-57 89 -75 0 -8 7 -14 15 -14 15 0 20 -16 16 -59 -3 -27 -10 -39 -63 -100
l-37 -43 -33 25 c-18 13 -47 29 -64 35 -29 9 -33 8 -44 -16 -22 -48 -23 -178
-4 -382 l18 -200 37 0 c50 0 53 19 29 176 -11 70 -18 129 -17 130 18 15 94 44
119 46 28 3 34 -1 36 -19 2 -13 7 -23 11 -23 5 0 14 -14 21 -30 17 -41 51 -66
116 -85 l54 -16 -16 -37 c-14 -34 -48 -94 -76 -134 -10 -14 -8 -31 12 -88 22
-62 27 -70 50 -70 22 0 31 11 63 75 20 41 43 75 50 75 7 0 41 57 75 126 40 81
70 128 82 131 12 3 22 21 30 51 16 68 77 122 136 122 23 0 54 -4 68 -10 l26
-10 0 64 c0 61 -1 64 -28 74 -16 5 -89 44 -163 86 -73 42 -139 76 -146 76 -7
0 -13 6 -13 13 0 15 -62 37 -102 37 -15 0 -40 16 -68 46 -64 66 -179 141 -264
174 -21 8 -24 5 -35 -29z m427 -370 c118 -60 111 -198 -13 -252 -22 -9 -59
-20 -82 -24 -41 -6 -43 -6 -43 18 0 26 -16 37 -54 37 -32 0 -66 28 -66 55 0
38 20 73 46 79 17 5 24 13 24 30 0 14 12 39 27 56 25 30 30 32 74 27 26 -3 66
-15 87 -26z"/>
<path d="M13210 4173 c-13 -3 -100 -38 -192 -79 -92 -40 -216 -90 -275 -110
-60 -21 -110 -39 -112 -41 -2 -1 4 -22 15 -44 23 -53 63 -79 112 -72 28 4 44
0 65 -17 46 -36 36 -60 -48 -119 -59 -41 -75 -57 -75 -77 0 -15 6 -24 15 -24
9 0 21 -11 27 -25 6 -14 15 -25 19 -25 4 0 22 -15 41 -33 18 -19 68 -48 111
-66 78 -32 80 -32 163 -22 93 11 104 15 104 36 0 13 84 85 100 85 3 0 17 -22
30 -49 25 -54 43 -65 124 -76 l49 -7 -7 48 c-6 47 -42 139 -149 384 -30 69
-57 139 -61 155 -6 29 -3 32 51 65 32 19 60 35 62 37 2 1 -4 14 -13 29 -29 43
-85 60 -156 47z m-76 -280 c27 -54 79 -195 73 -198 -29 -13 -93 -65 -112 -92
-48 -62 -165 -118 -165 -79 0 10 -9 16 -26 16 -22 0 -24 3 -18 23 10 34 42 74
81 104 33 25 35 30 30 71 -3 31 -14 53 -36 76 -39 41 -43 86 -7 86 13 0 26 6
28 13 4 10 74 32 113 36 6 1 24 -25 39 -56z"/>
<path d="M7650 3909 l0 -64 78 -22 c42 -12 116 -39 164 -61 80 -38 87 -43 97
-79 21 -74 7 -96 -56 -91 -29 2 -41 9 -50 29 -11 22 -25 29 -90 44 -44 10
-138 20 -214 22 l-137 5 -23 -58 c-19 -48 -23 -77 -23 -159 0 -88 4 -111 33
-188 19 -49 39 -91 46 -93 7 -3 27 -4 44 -2 l31 3 -26 55 c-23 48 -25 65 -22
135 8 140 51 183 178 172 92 -8 98 -11 105 -65 16 -117 52 -220 96 -276 20
-26 22 -26 160 -26 97 0 139 -3 139 -11 0 -7 -5 -40 -11 -74 -12 -61 -11 -63
22 -124 18 -33 36 -61 39 -61 21 1 37 38 86 201 127 421 144 471 158 460 7 -6
40 -17 75 -25 l62 -14 -3 75 -3 75 -110 28 c-168 42 -634 196 -648 213 -7 8
-34 17 -62 21 -27 3 -69 9 -92 12 l-43 7 0 -64z m500 -230 c61 -14 160 -59
160 -73 0 -6 -16 -68 -37 -138 l-36 -126 -106 -7 c-58 -3 -128 -10 -155 -16
-44 -9 -52 -7 -73 13 -17 16 -23 32 -23 63 l0 42 65 5 c37 3 78 14 97 25 l33
19 3 102 c3 112 0 108 72 91z"/>
<path d="M12247 3801 c-82 -21 -152 -43 -156 -49 -3 -6 -49 -20 -101 -32 -52
-11 -170 -39 -262 -62 -153 -38 -168 -44 -168 -63 0 -12 10 -35 22 -50 22 -28
22 -28 113 -22 60 4 164 25 310 62 121 30 223 55 228 55 4 0 7 -22 7 -49 l0
-48 -97 -31 c-54 -17 -133 -41 -175 -53 -68 -20 -78 -26 -78 -46 0 -17 17 -34
69 -68 106 -70 125 -113 72 -166 -58 -58 -144 -24 -244 97 -47 56 -56 63 -89
63 -38 1 -38 1 -38 -39 0 -24 5 -40 12 -40 6 0 37 -27 68 -59 31 -32 95 -84
143 -115 l86 -57 103 3 102 3 23 34 c46 69 18 165 -72 238 l-37 31 25 17 c29
19 146 41 169 33 9 -4 21 -37 33 -90 24 -114 41 -158 73 -192 31 -33 96 -65
131 -66 21 0 23 3 16 36 -3 20 -29 116 -57 213 -116 408 -116 410 -65 411 27
0 57 19 57 35 0 28 -44 105 -59 104 -9 -1 -83 -18 -164 -38z"/>
<path d="M9082 3792 c-9 -6 -9 -18 4 -55 15 -44 17 -46 62 -52 75 -10 115 -28
137 -63 11 -17 28 -31 38 -32 14 0 17 -5 11 -22 -3 -13 -7 -24 -8 -25 -1 -2
-85 13 -187 32 -101 19 -214 35 -251 35 l-68 0 0 -29 c0 -15 5 -42 11 -60 9
-25 16 -31 40 -31 l29 0 0 -139 c0 -77 -3 -146 -6 -155 -4 -12 -20 -16 -55
-16 -49 0 -49 0 -43 -27 20 -87 90 -184 151 -210 43 -18 42 -18 49 26 10 63
10 63 121 39 l101 -21 7 -71 c4 -39 12 -88 17 -109 12 -39 70 -107 92 -107 20
0 53 169 86 440 11 91 23 184 26 208 l5 42 91 0 c79 0 89 2 84 16 -4 9 -11 36
-17 60 -9 35 -17 45 -38 50 -128 29 -117 22 -194 129 -55 76 -82 104 -117 122
-48 24 -156 40 -178 25z m196 -377 c41 -17 43 -20 37 -49 -3 -17 -9 -77 -12
-133 l-5 -103 -99 0 c-76 0 -106 4 -127 17 -15 9 -28 18 -30 19 -4 2 17 210
24 248 l6 29 82 -6 c44 -2 101 -13 124 -22z"/>
<path d="M9860 3440 c0 -44 3 -52 24 -60 26 -9 133 -25 254 -35 l72 -7 0 -84
c0 -46 -4 -84 -8 -84 -5 0 -19 11 -32 25 -55 58 -251 85 -328 46 -50 -26 -90
-70 -102 -112 -6 -18 -10 -71 -10 -116 0 -69 3 -83 16 -83 22 0 73 -37 112
-82 58 -66 142 -73 281 -23 38 14 71 25 74 25 2 0 8 -19 11 -43 4 -23 14 -54
24 -69 18 -28 89 -88 103 -88 5 0 9 21 9 48 1 122 20 576 26 607 7 39 39 55
110 55 24 0 46 5 50 11 12 20 -27 88 -55 93 -45 10 -360 26 -498 26 l-133 0 0
-50z m286 -324 c8 -14 25 -26 37 -28 26 -4 34 -38 17 -76 -9 -23 -28 -33 -128
-65 -125 -41 -146 -44 -187 -25 -18 8 -24 16 -19 27 4 9 9 41 12 71 2 31 10
58 18 63 8 4 14 14 14 22 0 20 50 30 167 33 46 2 55 -1 69 -22z"/>
</g>
</svg>
